P3
100 56
255
0 0 0
0 0 0
0 0 0
9 2 14
0 0 0
99 80 72
20 8 8
0 0 0
0 0 0
0 0 0
11 1 13
20 10 10
51 51 51
0 0 0
51 51 51
0 0 0
32 22 22
51 51 51
22 22 16
0 0 0
39 64 28
0 0 0
0 0 0
0 0 0
99 80 72
99 80 72
51 51 51
32 22 22
128 102 94
0 0 0
0 0 0
51 51 51
22 8 27
45 39 39
111 95 88
0 0 0
32 22 22
0 0 0
0 0 0
62 36 32
99 80 72
0 0 0
0 0 0
125 97 88
0 0 0
0 0 0
0 0 0
108 108 79
0 0 0
80 62 60
0 0 0
0 0 0
121 114 88
0 0 0
0 0 0
0 0 0
0 0 0
0 0 0
88 51 45
99 80 72
62 36 32
70 80 51
0 0 0
0 0 0
62 36 32
62 36 32
0 0 0
64 60 55
99 80 72
0 0 0
0 0 0
0 0 0
0 0 0
99 80 72
70 80 51
78 85 64
99 80 72
0 0 0
0 0 0
0 0 0
62 36 32
117 88 79
62 36 32
0 0 0
0 0 0
0 0 0
0 0 0
80 62 60
0 0 0
0 0 0
0 0 0
0 0 0
117 88 79
0 0 0
0 0 0
0 0 0
99 80 72
0 0 0
0 0 0
99 80 72
0 0 0
0 0 0
3 0 6
0 0 0
0 0 0
0 0 0
99 80 72
0 0 0
0 0 0
0 0 0
0 0 0
0 0 0
0 0 0
0 0 0
1 0 2
0 0 0
0 0 0
51 51 51
0 0 0
0 0 0
41 30 31
51 51 51
51 51 51
99 80 72
62 36 32
12 4 18
0 0 0
6 80 4
120 90 85
36 28 39
99 80 72
0 0 0
32 22 22
0 0 0
12 4 18
117 88 79
99 80 72
99 80 72
51 51 51
0 0 0
1 1 0
0 0 0
0 0 0
28 35 25
0 0 0
99 80 72
0 0 0
99 80 72
0 0 0
5 1 7
10 11 3
99 80 72
51 51 51
70 80 51
0 0 0
99 80 72
140 114 102
49 80 36
0 0 0
0 0 0
62 72 45
51 51 51
62 36 32
70 80 51
32 22 22
51 51 51
32 45 32
0 0 0
0 0 0
62 36 32
0 0 0
99 80 72
70 80 51
0 0 0
0 0 0
0 0 0
99 80 72
0 0 0
99 80 72
99 80 72
0 0 0
99 80 72
76 80 45
62 36 32
0 0 0
0 0 0
140 114 102
0 0 0
32 22 22
62 36 32
62 36 32
0 0 0
140 114 102
0 0 0
67 36 33
0 0 0
51 51 51
99 80 72
0 0 0
0 0 0
2 0 5
0 0 0
0 0 0
0 0 0
0 0 0
99 80 72
39 32 20
51 51 51
0 0 0
0 0 0
0 0 0
99 80 72
0 0 0
0 0 0
0 0 0
44 31 50
0 0 1
99 80 72
32 22 22
25 15 30
104 84 75
0 0 0
0 0 0
64 36 37
62 36 32
0 0 0
102 81 76
62 36 32
0 0 0
51 51 51
99 80 72
88 51 45
0 0 0
99 80 72
31 19 17
0 0 0
94 88 61
122 114 88
72 45 51
100 81 76
1 0 1
99 80 72
71 79 43
0 0 0
143 116 104
51 51 51
103 103 75
99 80 72
39 32 20
62 72 45
0 0 0
118 89 79
62 36 32
32 22 22
99 80 72
0 0 0
0 0 0
15 12 5
28 17 17
44 36 22
0 0 0
99 80 72
0 0 0
63 36 35
36 28 39
122 108 102
0 0 0
125 114 85
121 114 88
0 0 0
99 80 72
111 125 88
99 80 72
62 36 32
0 0 0
99 80 72
99 80 72
140 140 102
0 0 0
62 36 32
0 0 0
0 0 0
0 0 0
153 120 107
0 0 0
99 80 72
0 0 0
99 80 72
0 0 0
0 0 0
0 0 0
99 80 72
62 36 32
12 4 4
0 0 0
117 88 79
99 80 72
149 125 114
0 0 0
99 80 72
140 114 102
117 88 79
0 0 1
0 0 0
36 28 39
0 0 0
0 0 0
117 88 79
36 28 39
3 0 2
90 51 47
11 3 10
51 51 51
0 0 0
0 0 0
45 32 32
0 0 0
0 0 0
0 0 0
43 28 28
0 0 0
99 80 72
99 80 72
11 25 5
40 16 16
99 80 72
8 2 8
6 1 8
39 64 28
70 80 51
0 0 0
32 22 22
62 36 32
32 45 32
2 0 3
51 51 51
0 0 0
62 36 32
51 51 51
32 22 22
99 81 73
70 80 51
28 17 17
70 42 39
117 88 80
86 95 72
0 0 0
118 88 80
70 80 51
113 87 77
70 80 51
44 72 32
0 0 0
99 80 72
0 0 0
99 80 72
99 80 72
99 80 72
140 114 102
102 81 72
0 0 0
68 39 33
0 0 0
70 80 51
51 51 51
99 80 72
99 80 72
0 0 0
0 0 0
113 95 68
0 0 0
140 114 102
62 36 32
0 0 0
99 80 72
70 80 51
0 0 0
153 120 107
0 0 0
128 102 94
88 51 45
62 36 32
0 0 0
62 36 32
99 80 72
0 0 0
0 0 0
0 0 0
0 0 0
0 0 0
0 0 0
18 9 9
117 88 79
140 114 102
99 80 72
117 88 79
0 0 0
0 0 0
99 80 72
0 0 0
0 0 0
22 12 17
0 0 0
0 0 0
0 0 0
32 22 22
20 20 14
25 28 28
100 81 73
51 51 51
15 12 5
10 20 7
20 11 15
0 0 0
51 51 51
0 0 0
104 84 75
0 0 0
32 22 22
62 36 32
0 0 0
51 51 51
38 28 43
0 0 0
0 0 0
0 0 1
25 7 6
105 82 73
2 0 5
0 0 0
0 0 0
99 80 72
51 51 51
62 36 32
32 22 23
117 88 79
0 0 0
54 51 56
51 51 51
0 0 0
99 80 72
54 75 39
44 72 32
0 0 0
5 1 6
62 36 33
0 0 0
99 80 72
0 0 0
0 0 0
123 94 81
70 80 51
62 36 32
70 80 51
54 75 39
0 0 0
147 120 104
0 0 0
0 0 0
99 80 72
0 0 0
140 114 102
62 36 32
121 114 88
45 39 39
171 161 125
94 88 60
0 0 0
88 51 45
70 80 51
0 0 0
0 0 0
0 0 0
62 36 32
0 0 0
108 62 56
0 0 0
0 0 0
140 114 102
99 80 72
117 88 79
62 36 32
18 8 23
44 36 22
0 0 0
153 120 107
0 0 0
0 0 0
70 80 51
34 21 21
62 36 32
0 0 0
36 51 36
62 36 32
62 36 32
117 88 79
0 0 0
62 36 32
115 87 79
62 36 32
0 0 0
0 0 0
0 0 0
62 36 32
102 81 74
0 0 0
121 114 88
48 36 45
10 1 1
77 75 75
0 0 0
29 17 19
0 0 0
25 15 30
12 8 17
22 9 24
51 51 51
3 0 6
0 0 0
0 0 0
0 0 0
0 0 0
1 0 3
0 0 0
0 0 0
106 103 77
0 0 0
0 0 0
102 82 78
10 1 1
52 51 54
88 51 45
51 51 51
9 2 14
0 0 1
70 42 40
11 12 5
0 0 0
0 0 0
51 51 51
0 0 0
0 0 0
0 0 0
117 88 79
77 93 60
4 0 4
0 0 0
95 105 61
99 80 72
0 0 0
62 36 32
0 0 0
70 80 51
0 0 0
62 36 32
62 36 32
0 0 0
95 105 61
0 0 0
10 11 3
153 120 107
62 36 32
0 0 0
62 36 32
255 255 255
255 255 255
255 255 255
255 255 255
255 255 255
255 255 255
255 255 255
255 255 255
255 255 255
255 255 255
255 255 255
99 80 72
0 0 0
0 0 0
0 0 0
78 95 62
56 32 28
0 0 0
0 0 0
73 81 52
70 80 51
0 0 0
51 51 51
0 0 0
99 80 72
0 0 0
0 0 0
0 0 0
8 10 3
99 80 72
99 80 72
32 22 22
0 0 0
0 0 0
0 0 0
0 0 0
62 36 32
0 0 0
0 0 0
32 22 22
51 51 51
0 0 0
11 3 11
0 0 0
1 0 3
0 0 0
0 0 0
1 0 3
15 3 3
32 39 28
0 0 1
153 120 107
12 4 18
45 32 32
2 0 3
62 36 32
62 36 32
99 80 72
22 22 16
51 51 51
0 0 0
8 1 2
0 0 0
99 80 72
0 0 0
0 0 0
77 84 56
25 15 30
62 36 32
0 0 0
58 53 59
122 100 98
36 28 41
51 51 51
99 80 72
7 6 2
70 42 39
0 0 0
140 114 102
100 108 88
0 0 0
0 0 0
0 0 0
70 80 51
0 0 0
0 0 0
62 72 62
63 36 32
0 0 0
70 80 51
0 0 0
65 46 33
122 108 102
64 37 33
99 81 72
113 127 90
94 88 60
0 0 0
144 115 103
99 80 72
255 255 255
255 255 255
255 255 255
255 255 255
255 255 255
255 255 255
255 255 255
255 255 255
255 255 255
255 255 255
255 255 255
0 0 0
3 1 4
99 80 72
153 120 107
75 82 52
0 0 0
131 125 102
9 2 14
51 51 51
111 95 88
117 88 79
70 80 51
62 36 32
0 0 0
0 0 0
0 0 0
56 32 28
0 0 0
0 0 0
0 0 0
62 36 32
0 0 0
117 88 79
102 82 72
0 0 0
0 0 0
0 0 0
0 0 0
0 0 0
25 15 30
0 0 0
32 22 22
0 0 0
0 0 0
32 22 22
0 0 0
105 95 80
37 14 16
62 36 32
99 80 72
70 80 51
99 80 72
32 16 20
0 0 0
99 80 72
0 0 0
32 22 22
99 80 72
62 36 32
99 80 72
8 8 4
0 0 0
72 72 72
0 0 0
122 108 102
121 114 88
0 0 0
0 0 0
0 0 0
1 0 3
51 51 51
5 8 2
0 0 0
113 96 91
99 80 72
0 0 0
0 0 0
117 88 79
41 47 35
70 42 39
101 84 74
97 60 50
0 0 0
0 0 0
35 12 11
0 0 0
0 0 0
0 0 0
0 0 0
99 80 72
117 88 79
70 80 51
99 80 72
0 0 1
99 80 72
62 36 32
62 36 32
0 0 0
0 0 0
255 255 255
255 255 255
255 255 255
255 255 255
255 255 255
255 255 255
255 255 255
255 255 255
255 255 255
255 255 255
255 255 255
14 40 14
0 0 0
88 51 45
62 36 32
117 88 79
118 115 93
161 130 118
62 36 32
110 114 80
0 0 0
0 0 0
0 0 0
0 0 0
94 88 60
0 0 0
99 80 72
0 0 0
0 0 0
62 36 32
140 114 102
140 114 102
99 80 72
0 0 0
0 0 0
99 80 72
0 0 0
32 22 22
3 0 6
0 0 0
0 0 0
10 1 1
117 88 79
2 0 3
0 0 0
0 0 1
0 0 0
0 0 1
0 0 0
99 80 72
0 0 0
6 1 11
100 81 73
0 0 0
72 72 72
51 51 51
6 1 10
32 22 22
86 95 72
0 0 0
51 51 51
46 34 44
101 81 74
22 12 17
14 10 7
52 51 52
99 80 72
99 80 72
32 22 22
15 25 8
0 0 0
1 0 3
99 80 72
0 0 0
0 0 0
103 82 73
116 137 78
17 28 9
140 140 104
0 0 0
51 51 51
0 0 0
51 51 51
0 0 0
46 48 27
62 36 32
99 80 72
67 53 38
0 0 0
99 80 72
0 0 0
121 114 88
140 114 102
70 80 51
0 0 0
0 0 0
62 36 32
82 108 60
0 0 0
0 0 0
255 255 255
255 255 255
255 255 255
255 255 255
255 255 255
255 255 255
255 255 255
255 255 255
255 255 255
255 255 255
255 255 255
0 0 0
62 36 32
51 51 51
117 88 79
0 0 0
99 80 72
125 72 64
99 80 72
82 108 60
99 80 72
99 80 72
0 0 0
56 32 28
161 130 118
62 36 32
62 36 32
0 0 0
62 36 32
0 0 0
0 0 0
62 36 32
62 36 32
0 0 0
0 0 0
62 36 32
0 0 0
0 0 0
36 28 39
4 0 8
0 0 0
62 36 32
72 72 72
24 11 16
4 0 8
0 0 0
48 36 45
0 0 0
0 0 0
104 84 76
0 0 0
0 0 0
0 0 0
36 28 39
57 45 45
63 36 33
2 0 3
22 12 18
51 51 51
0 0 0
36 28 39
51 51 52
32 22 22
51 51 53
51 51 51
0 0 0
101 84 74
99 80 72
51 51 51
0 0 0
99 80 72
51 51 51
0 0 0
0 0 0
51 51 51
0 0 0
6 10 2
0 0 0
70 80 51
70 80 51
76 103 55
0 0 0
0 0 0
0 0 0
62 36 32
0 0 0
0 0 0
0 0 0
99 80 72
49 80 36
99 80 72
32 45 32
0 0 0
62 36 32
122 89 80
99 80 72
0 0 0
17 28 9
0 0 0
62 36 32
255 255 255
255 255 255
255 255 255
255 255 255
255 255 255
255 255 255
255 255 255
255 255 255
255 255 255
255 255 255
255 255 255
0 0 0
62 36 32
62 36 32
62 36 32
153 120 107
0 0 0
80 62 60
0 0 0
133 95 85
0 0 0
0 0 0
0 0 0
0 0 0
86 95 72
62 36 32
0 0 0
0 0 0
99 80 72
0 0 0
0 0 0
62 36 32
0 0 0
0 0 0
99 80 72
0 0 0
0 0 0
0 0 0
0 0 0
0 0 0
99 80 72
0 0 0
22 12 17
0 0 0
0 0 0
36 28 39
0 0 0
5 2 1
51 51 51
0 0 0
99 80 72
0 0 0
105 85 82
33 23 28
117 88 79
51 51 51
0 0 0
26 8 10
0 0 0
0 0 0
4 0 4
93 57 48
0 0 0
32 22 23
27 21 24
99 80 72
87 95 73
1 0 1
51 51 51
80 62 60
65 37 40
55 52 52
0 0 0
18 8 23
28 64 20
39 32 20
19 16 7
0 0 0
94 88 60
28 64 20
11 7 15
20 10 10
0 0 0
44 72 32
70 80 51
0 0 0
62 36 32
121 114 88
62 36 32
62 36 32
0 0 0
5 1 5
0 0 0
128 120 92
52 79 35
85 97 65
117 88 79
76 80 45
51 51 51
99 114 72
255 255 255
255 255 255
255 255 255
255 255 255
255 255 255
255 255 255
255 255 255
255 255 255
255 255 255
255 255 255
255 255 255
103 82 73
32 22 22
62 36 32
0 0 0
0 0 0
17 28 9
88 51 45
106 87 75
93 74 72
99 80 72
0 0 0
153 120 107
99 80 72
44 72 32
0 0 0
62 36 32
92 53 46
0 0 0
120 90 79
0 0 0
0 0 0
62 36 32
0 0 0
99 80 72
62 36 32
0 0 0
0 0 0
0 0 0
0 0 0
62 36 32
0 0 0
0 0 0
0 0 0
0 0 0
0 0 0
37 28 41
51 51 51
0 0 0
0 0 0
56 56 53
0 0 1
52 51 54
99 81 74
51 51 51
99 80 72
3 0 6
0 0 0
0 0 0
36 28 39
51 51 51
80 62 60
72 72 72
57 53 59
57 77 51
70 75 66
0 0 0
10 7 5
99 80 72
51 51 51
62 36 32
99 80 72
9 2 14
28 17 17
22 45 22
77 74 61
0 0 0
0 0 0
99 80 72
99 114 72
44 72 32
0 0 0
22 5 5
32 45 32
70 80 51
62 36 32
103 87 73
0 0 0
0 0 0
39 32 20
70 80 51
70 80 51
99 80 72
70 80 51
11 12 4
94 88 60
121 114 88
106 87 75
0 0 0
70 80 51
255 255 255
255 255 255
255 255 255
255 255 255
255 255 255
255 255 255
255 255 255
255 255 255
255 255 255
255 255 255
255 255 255
99 80 72
117 120 79
62 36 32
99 80 72
140 114 102
0 0 0
62 36 32
117 88 79
102 81 72
99 80 72
62 36 32
62 36 32
0 0 0
0 0 0
62 36 32
99 80 72
0 0 0
0 0 0
19 16 7
0 0 0
62 36 32
0 0 0
0 0 0
62 36 32
62 36 32
0 0 0
0 0 0
0 0 0
25 28 28
0 0 0
0 0 0
2 0 3
0 0 0
0 0 0
99 80 72
26 21 19
62 36 32
101 81 74
7 3 6
54 51 56
32 22 22
111 95 88
0 0 0
2 0 3
1 0 2
39 32 20
140 114 102
99 80 72
1 0 4
82 64 63
45 32 32
51 51 51
4 1 7
0 0 0
0 0 0
51 51 51
6 18 4
0 0 0
99 80 73
40 31 40
84 78 78
0 0 0
74 39 35
0 0 0
62 36 32
32 45 32
140 114 102
28 64 20
22 12 8
62 72 45
0 0 0
62 36 32
99 80 72
0 0 0
65 54 38
44 36 22
44 72 32
0 0 0
7 12 2
121 114 88
0 0 0
145 143 104
121 114 88
99 80 72
75 103 55
0 0 0
0 0 0
20 10 10
48 79 33
255 255 255
255 255 255
255 255 255
255 255 255
255 255 255
255 255 255
255 255 255
255 255 255
255 255 255
255 255 255
255 255 255
0 0 0
70 80 51
70 80 51
56 32 28
99 80 72
0 0 0
88 51 45
99 80 72
32 22 22
62 36 32
0 0 0
0 0 0
62 36 32
63 38 32
117 88 79
62 36 32
51 51 51
0 0 0
51 51 51
0 0 0
88 51 45
0 0 0
0 0 0
62 36 32
133 95 85
0 0 0
0 0 0
0 0 0
0 0 0
0 0 0
57 53 59
25 15 30
3 0 6
99 80 72
0 0 0
0 0 0
28 17 17
51 51 51
62 36 32
25 15 30
40 27 24
16 6 13
48 58 46
36 28 39
99 80 72
62 36 32
100 81 73
22 12 17
99 80 72
32 22 22
28 20 20
67 39 44
3 0 6
149 125 114
99 80 72
0 0 0
0 0 0
34 23 24
111 95 88
140 114 102
6 20 3
0 0 0
0 0 0
1 0 3
0 0 0
110 114 80
140 114 102
32 45 32
101 87 73
70 80 51
62 72 45
99 80 72
99 80 72
0 0 0
99 80 72
20 10 10
0 0 0
0 0 0
0 0 0
25 14 9
73 88 52
0 0 0
0 0 0
57 88 48
70 80 51
70 81 51
118 120 79
156 161 114
108 120 75
255 255 255
255 255 255
255 255 255
255 255 255
255 255 255
255 255 255
255 255 255
255 255 255
255 255 255
255 255 255
255 255 255
111 95 88
117 88 79
139 120 95
0 0 0
102 85 73
0 0 0
140 114 102
88 51 45
51 51 51
117 88 79
62 36 32
74 39 35
0 0 0
0 0 0
0 0 0
90 52 46
0 0 0
62 36 32
0 0 0
117 88 79
88 51 45
99 80 72
0 0 0
0 0 0
62 36 32
56 32 31
0 0 0
40 29 46
0 0 0
1 0 3
0 0 0
0 0 0
1 0 1
40 26 30
0 0 0
9 2 14
99 80 73
0 0 0
2 0 3
0 0 0
32 22 24
32 22 23
0 0 1
101 84 74
0 0 2
0 0 0
51 51 51
111 95 88
0 0 0
0 0 0
111 95 88
64 36 37
12 4 18
32 22 22
5 6 4
56 45 45
0 0 0
0 0 0
52 51 53
86 95 72
19 31 9
0 0 0
50 86 39
0 0 0
99 80 72
44 72 32
0 0 0
0 0 0
99 80 72
15 25 8
7 7 3
114 100 89
12 18 9
53 73 35
70 80 51
20 11 7
70 80 51
99 84 72
86 95 72
77 93 60
147 135 107
32 45 32
99 114 72
86 95 72
77 93 60
82 108 60
99 80 72
108 120 75
39 32 20
255 255 255
255 255 255
255 255 255
255 255 255
255 255 255
255 255 255
255 255 255
255 255 255
255 255 255
255 255 255
255 255 255
0 0 0
80 62 60
0 0 0
0 0 0
0 0 0
39 32 20
62 36 32
35 14 12
150 125 99
0 0 0
62 36 32
0 0 0
62 36 32
105 82 73
0 0 0
99 80 72
88 51 45
99 80 72
68 39 33
99 80 72
25 7 6
62 36 32
99 80 72
0 0 0
95 80 79
0 0 0
0 0 0
56 56 53
0 0 0
0 0 0
32 22 22
33 23 25
0 0 0
14 11 11
36 28 39
2 0 5
58 55 55
0 0 0
67 74 70
19 23 15
0 0 0
116 98 91
9 2 14
111 95 88
16 6 13
32 22 23
52 51 52
57 53 60
62 72 45
51 51 53
10 3 9
111 95 88
8 3 7
58 51 52
52 51 54
2 0 5
0 0 0
39 64 28
51 51 51
51 51 51
75 103 56
9 9 4
0 0 0
0 0 0
10 6 8
0 0 0
0 0 0
0 0 0
18 29 10
70 80 51
32 22 22
70 80 51
70 80 51
0 0 0
62 36 32
62 72 45
0 0 0
97 112 69
0 0 0
0 0 0
82 88 56
121 114 88
95 115 77
70 80 51
99 114 72
0 0 0
112 139 80
91 113 63
99 114 72
255 255 255
255 255 255
255 255 255
255 255 255
255 255 255
255 255 255
255 255 255
255 255 255
255 255 255
255 255 255
255 255 255
70 80 51
0 0 0
90 87 58
155 123 108
5 3 1
62 36 32
3 0 0
62 36 32
113 95 68
28 17 17
99 80 72
0 0 0
99 80 72
0 0 0
62 36 32
0 0 0
84 48 43
0 0 0
99 80 72
0 0 0
99 80 72
70 80 51
140 114 102
99 80 72
0 0 0
2 0 2
0 0 0
111 95 88
56 56 53
94 88 60
0 0 0
0 0 0
109 90 82
56 45 45
0 0 0
10 3 9
48 36 45
0 0 1
0 0 0
51 51 51
36 51 36
25 14 9
0 0 0
29 17 19
32 22 23
13 5 13
0 0 0
39 26 28
8 2 8
41 30 31
51 51 51
72 72 72
62 72 62
52 51 52
51 51 51
72 72 72
52 51 51
36 28 39
0 0 0
32 22 24
51 51 51
81 91 65
4 9 4
0 0 0
25 28 12
44 52 28
0 0 0
73 84 53
0 0 0
0 0 0
30 33 20
99 114 72
0 0 0
78 114 58
46 40 24
0 0 0
0 0 0
25 14 9
50 77 34
51 51 51
104 123 79
97 120 79
82 88 56
0 0 0
0 0 0
121 135 85
49 80 36
51 51 51
121 114 88
255 255 255
255 255 255
255 255 255
255 255 255
255 255 255
255 255 255
255 255 255
255 255 255
255 255 255
255 255 255
255 255 255
62 36 32
128 102 94
108 98 68
62 36 32
32 22 22
0 0 0
131 125 102
0 0 0
70 80 51
99 80 72
0 0 0
0 0 0
44 36 22
117 88 79
0 0 0
0 0 0
113 87 77
0 0 0
0 0 0
0 0 0
31 12 11
0 0 0
0 0 0
0 0 0
0 0 0
0 0 0
20 20 14
0 0 0
0 0 0
25 15 30
0 0 0
99 80 72
51 51 51
14 11 5
18 8 23
32 22 22
25 15 30
34 19 35
51 51 51
70 80 51
56 32 29
0 0 0
32 22 22
0 0 0
32 22 23
22 9 30
9 2 14
0 0 0
32 22 22
0 0 0
44 72 32
28 16 35
51 51 51
2 0 3
72 72 72
1 0 3
0 0 0
51 51 51
4 0 8
18 8 23
1 0 3
82 88 56
0 0 0
32 45 32
20 40 20
67 77 47
0 0 0
9 4 13
51 51 51
0 0 0
44 72 32
15 25 8
75 99 58
82 104 56
46 46 23
0 0 0
99 114 72
82 108 60
111 126 77
78 95 62
44 72 32
25 28 12
0 0 0
99 114 72
108 125 78
151 183 110
126 145 92
70 80 51
122 158 89
255 255 255
255 255 255
255 255 255
255 255 255
255 255 255
255 255 255
255 255 255
255 255 255
255 255 255
255 255 255
255 255 255
99 108 64
99 80 72
62 36 32
80 87 55
99 80 72
28 20 20
0 0 0
0 0 0
88 51 45
140 114 102
0 0 0
99 80 72
117 88 79
0 0 0
0 0 0
0 0 0
99 80 72
0 0 0
64 38 32
185 161 135
0 0 0
62 36 32
80 62 60
70 80 51
0 0 0
0 0 0
99 80 72
62 36 32
57 53 59
0 0 0
51 51 51
0 0 0
51 51 51
0 0 0
32 22 22
22 22 16
99 80 72
6 1 11
0 0 0
12 9 6
8 2 8
51 51 51
36 28 39
39 32 28
0 0 0
58 57 54
65 58 63
0 0 0
60 56 56
51 51 51
36 51 36
89 88 90
32 22 22
51 51 51
51 51 51
8 7 2
59 60 60
118 140 90
49 65 51
3 2 5
64 70 47
78 90 57
83 95 65
40 57 40
41 90 34
40 57 40
49 40 25
87 99 60
78 90 57
97 121 80
0 0 0
78 90 57
0 0 0
80 128 59
0 0 0
92 121 67
39 90 28
28 32 14
38 40 36
0 0 0
2 57 2
78 90 57
110 128 80
78 90 57
78 90 57
49 40 25
135 156 99
78 90 57
80 91 57
0 0 0
0 0 0
146 163 103
44 36 22
0 0 0
123 156 90
99 114 72
94 88 60
124 113 91
99 80 72
99 80 72
35 14 12
117 88 79
99 80 72
117 88 79
51 51 51
36 51 36
62 36 32
70 80 51
0 0 0
0 0 0
0 0 0
99 80 72
15 3 2
0 0 0
0 0 0
117 88 79
0 0 0
99 80 72
0 0 0
0 0 0
119 88 79
133 95 85
133 95 85
0 0 0
88 62 45
29 20 21
39 32 20
51 51 51
4 0 8
0 0 0
0 0 0
51 51 51
28 20 20
27 15 33
0 0 0
51 51 51
36 51 36
99 80 72
64 82 59
0 0 0
161 130 118
83 77 82
51 51 51
0 0 0
32 22 22
0 0 0
32 22 23
110 103 85
0 0 0
39 20 36
33 22 24
5 4 5
0 0 0
75 75 73
51 51 51
5 8 2
10 5 14
1 0 3
28 31 31
30 57 32
101 114 74
87 128 64
20 17 24
78 90 57
45 57 40
84 107 65
88 107 70
40 57 41
78 90 57
18 13 19
49 40 25
49 40 25
0 0 0
78 90 57
64 70 50
5 1 8
87 110 66
0 0 0
0 0 0
110 128 80
39 90 28
88 107 70
92 99 62
0 0 0
0 0 0
70 57 36
78 90 57
40 57 40
81 92 58
0 0 0
104 140 80
49 63 44
49 40 25
99 130 72
0 0 0
186 157 144
101 83 73
75 50 38
20 20 14
0 0 0
62 36 32
141 131 106
133 114 91
70 80 51
0 0 0
171 140 125
103 87 73
88 51 45
121 140 88
117 88 79
99 80 72
70 80 51
0 0 0
99 80 72
62 53 52
62 36 32
117 88 79
62 36 32
74 39 35
0 0 0
99 80 72
51 51 51
140 114 102
0 0 0
99 80 72
0 0 0
22 22 16
0 0 0
36 62 26
72 72 72
61 68 62
51 51 51
99 80 72
3 0 6
1 0 2
0 0 0
51 51 51
0 0 0
9 2 14
57 53 59
1 0 0
64 72 64
72 72 72
114 99 93
56 56 54
51 51 51
0 0 1
4 0 8
18 18 13
88 88 88
41 27 38
34 19 35
36 33 28
12 3 20
22 12 17
12 51 12
82 94 60
49 40 25
92 108 70
14 9 18
85 128 78
91 110 72
136 156 100
5 1 5
89 107 70
49 40 25
51 60 42
113 134 81
78 90 57
0 0 0
0 0 0
0 0 0
81 107 61
78 90 57
40 57 40
78 90 57
110 128 80
27 90 20
11 22 8
0 0 0
87 127 64
78 90 57
39 90 28
0 0 0
49 40 25
144 161 102
10 5 3
49 40 25
78 90 57
0 0 0
92 99 62
78 90 57
51 40 25
92 99 62
78 90 57
171 161 125
133 125 85
65 41 35
140 114 102
94 88 60
94 88 60
0 0 0
82 108 60
3 4 0
153 120 107
108 135 79
62 36 32
113 87 77
99 80 72
5 0 0
66 35 31
94 88 60
0 0 0
0 0 0
0 0 0
80 62 60
0 0 0
140 114 102
62 36 32
62 36 32
0 0 0
0 0 0
0 0 0
99 80 72
62 36 32
0 0 0
1 0 1
0 0 0
104 84 75
0 0 0
0 0 0
1 0 3
0 0 0
62 36 32
33 22 24
51 51 51
0 0 1
33 22 24
51 51 51
0 0 0
114 99 93
51 51 51
96 99 81
0 0 0
99 80 72
74 66 71
88 88 88
18 8 24
14 11 11
0 0 0
18 8 23
19 16 24
28 20 20
0 0 0
0 0 0
53 42 48
27 25 23
78 90 57
53 82 55
75 114 75
17 40 9
12 25 9
0 0 2
0 0 0
70 57 39
36 44 32
70 57 39
84 96 66
0 0 0
0 0 0
0 0 0
92 99 62
0 0 0
78 90 57
25 25 18
89 107 54
0 0 0
0 0 0
20 17 24
0 0 0
110 128 80
51 41 31
78 90 58
88 107 70
110 128 80
0 0 0
82 94 60
78 90 57
28 31 31
0 0 1
41 43 21
55 90 40
40 57 40
40 90 28
0 0 0
120 121 81
174 159 121
133 125 85
70 80 51
62 36 32
0 0 0
0 0 0
0 0 0
99 80 72
108 88 75
0 0 0
113 95 68
62 36 32
62 36 32
99 80 72
0 0 0
117 88 79
0 0 0
99 80 72
99 80 72
99 80 72
99 80 72
35 14 12
62 36 32
99 80 72
0 0 0
0 0 0
45 39 39
0 0 0
117 88 79
51 51 51
0 0 0
0 0 0
0 0 0
99 80 73
39 28 41
33 23 26
2 0 1
0 0 0
4 0 6
35 14 12
0 0 0
0 0 1
42 56 39
35 14 12
18 8 24
0 0 0
32 22 22
79 75 75
111 95 88
51 51 51
0 0 0
82 64 63
14 10 7
25 15 30
81 80 79
2 0 3
101 84 74
25 28 28
62 36 32
88 68 72
40 57 40
110 128 81
49 40 26
57 80 57
0 0 1
88 107 71
88 107 70
40 57 40
14 7 20
78 90 57
22 9 8
4 7 1
30 31 34
0 0 1
46 59 42
0 0 0
78 90 57
110 128 80
0 0 0
92 99 62
28 24 34
78 90 57
110 128 80
118 140 90
92 99 62
92 99 62
110 128 80
57 80 57
117 156 85
135 156 99
70 57 36
78 90 57
96 108 66
92 99 62
96 128 70
0 0 0
0 0 0
123 156 90
105 121 76
114 138 76
111 95 88
93 82 50
75 87 53
105 108 85
75 82 52
66 38 33
62 36 32
161 130 118
62 36 32
44 72 32
76 51 39
99 80 72
22 12 8
17 14 6
99 80 72
99 80 72
142 108 99
0 0 0
88 51 45
117 88 79
0 0 0
51 51 51
0 0 0
0 0 0
86 95 72
0 0 0
117 88 79
0 0 0
0 0 0
0 0 1
32 45 32
99 80 72
0 0 0
0 0 0
0 0 0
0 0 1
22 22 16
24 10 27
0 0 0
37 24 24
28 23 21
4 2 5
36 51 36
0 0 1
0 0 0
0 0 0
58 55 55
122 108 102
77 77 77
124 95 137
139 111 151
1 0 3
0 0 0
56 52 54
36 51 36
4 0 7
51 51 51
63 73 46
5 7 3
0 0 0
21 17 25
8 3 14
7 2 11
0 0 0
40 57 40
49 65 51
0 0 0
110 128 80
0 0 0
28 31 31
20 31 22
78 90 57
0 0 0
40 57 40
40 57 40
76 83 43
93 99 65
35 65 37
78 90 57
50 70 27
28 31 31
0 0 0
78 90 57
78 90 57
90 107 70
0 0 0
0 0 0
39 90 28
78 90 57
0 0 0
92 99 62
78 90 57
110 128 80
0 0 0
82 99 58
0 0 0
78 90 57
105 107 67
35 38 22
141 140 102
39 33 20
62 36 32
111 95 88
102 113 71
142 115 102
0 0 0
115 101 89
0 0 0
0 0 0
0 0 0
155 120 107
0 0 0
62 36 32
56 32 28
62 36 32
35 14 12
0 0 0
0 0 0
67 36 32
28 16 10
0 0 0
0 0 0
35 14 12
99 80 72
0 0 0
0 0 0
0 0 0
99 80 72
0 0 0
51 51 51
51 51 51
60 56 56
0 0 0
51 51 51
62 36 32
32 23 24
0 0 0
62 58 64
99 80 72
0 0 0
0 0 0
99 80 72
51 51 51
99 80 72
52 56 51
4 0 8
122 108 102
18 9 9
40 31 44
87 65 97
116 81 114
4 1 4
54 51 51
41 48 44
34 22 22
55 55 53
63 36 35
21 20 29
51 51 51
19 8 24
74 107 73
29 31 33
40 57 40
0 0 0
78 90 57
0 0 1
0 0 1
39 90 28
57 80 57
28 31 31
78 90 57
78 90 57
55 90 40
0 0 0
0 0 0
64 70 47
40 57 40
0 0 0
74 99 47
28 31 31
118 140 90
78 90 57
14 9 18
0 0 0
78 90 57
90 107 70
0 0 0
110 128 80
0 0 0
110 128 80
0 0 0
0 0 0
0 0 0
118 140 90
55 90 40
0 0 0
78 90 57
78 90 57
96 128 70
94 88 60
17 28 9
107 103 79
120 94 80
99 80 72
62 36 32
0 0 0
117 88 79
113 114 80
62 36 32
0 0 0
0 0 0
88 51 45
68 39 33
117 88 79
19 32 10
70 80 51
80 62 60
62 36 32
62 36 32
99 80 72
62 36 32
117 88 79
62 36 32
62 36 32
0 0 0
0 0 0
140 114 102
99 80 72
0 0 0
1 0 2
0 0 0
51 51 51
0 0 0
14 5 7
1 0 2
100 83 73
51 51 51
32 22 22
62 58 64
81 76 79
56 56 54
4 0 8
0 0 0
0 0 0
23 22 16
51 51 51
51 51 51
32 22 22
73 51 85
244 184 255
253 194 255
2 0 3
28 32 19
57 53 59
22 22 16
32 22 22
0 0 0
60 56 56
32 22 22
100 108 88
45 59 48
134 115 111
255 255 255
255 236 234
122 94 94
5 1 9
1 0 3
41 57 42
49 40 25
0 0 0
49 40 25
70 57 39
78 90 57
78 90 57
78 90 57
32 30 30
7 5 10
49 40 25
84 92 58
27 42 16
0 0 0
96 128 70
78 90 57
0 0 0
78 90 57
0 0 0
0 0 0
0 0 0
118 140 90
40 57 40
0 0 0
78 90 57
110 128 80
40 57 40
0 0 0
78 90 57
63 99 38
24 40 12
70 80 51
94 88 60
161 153 118
35 29 18
125 140 88
123 113 88
70 80 51
65 38 33
66 39 33
0 0 0
32 45 32
103 88 74
133 95 85
117 88 79
62 36 32
117 88 79
0 0 0
39 32 20
39 32 20
106 87 75
0 0 0
117 88 79
0 0 0
0 0 0
71 81 51
0 0 0
0 0 0
0 0 0
0 0 0
0 0 0
0 0 0
2 0 5
51 51 51
2 0 2
99 80 72
25 15 30
64 39 36
0 0 0
3 0 6
99 80 72
1 7 1
0 0 0
140 114 102
0 0 0
0 0 0
111 95 88
42 52 40
67 88 60
99 80 72
51 51 51
6 1 11
255 194 255
255 204 255
0 0 0
80 62 60
0 0 0
16 8 21
54 51 57
32 45 32
0 0 0
0 0 0
67 88 60
95 108 90
255 255 255
255 255 255
255 255 255
255 255 255
114 101 85
0 0 0
15 18 5
44 31 19
78 90 57
20 17 24
78 90 57
0 0 0
78 90 57
0 0 0
40 57 40
7 9 9
0 0 0
0 0 0
0 0 0
0 0 0
78 90 57
0 0 0
49 40 25
110 128 80
40 57 40
88 107 70
0 0 0
92 99 62
0 0 0
78 90 57
0 0 0
40 57 40
78 90 57
0 0 0
31 36 16
78 90 57
78 128 57
63 38 32
106 109 74
139 124 95
83 89 56
85 98 66
102 85 73
99 80 72
36 51 36
71 81 51
120 93 80
99 80 72
84 48 43
63 36 32
99 80 72
0 0 0
0 0 0
0 0 0
0 0 0
123 94 81
147 102 91
70 80 51
140 114 102
66 35 31
28 16 10
56 38 26
117 88 79
117 88 79
0 0 0
99 80 72
88 51 45
0 0 0
0 0 0
25 15 30
0 0 0
0 0 0
22 12 18
51 51 51
51 51 51
41 27 38
0 0 0
0 0 0
0 0 0
0 0 0
0 0 0
0 0 1
0 0 0
33 23 26
25 15 15
36 51 36
32 22 22
12 5 12
247 186 255
255 215 255
0 0 0
51 51 51
12 4 18
18 8 23
65 58 64
64 36 33
19 9 14
57 53 59
12 18 9
144 96 93
255 255 255
255 255 255
255 255 255
255 255 255
215 164 160
20 57 20
5 17 6
0 0 0
147 172 115
57 80 57
64 86 65
78 102 51
22 19 12
84 121 64
114 132 86
96 128 70
88 107 70
19 8 5
0 0 0
20 17 24
78 90 57
78 90 57
0 0 0
0 0 0
0 0 0
78 90 57
92 140 72
0 0 0
78 90 57
78 90 57
0 0 0
118 140 90
78 90 57
0 0 0
40 92 29
18 11 8
0 0 0
70 82 51
99 80 72
143 140 99
80 85 47
100 102 70
62 36 32
88 88 56
0 0 0
76 80 45
123 94 81
117 88 79
144 125 108
51 51 51
0 0 0
80 62 60
62 53 52
101 81 72
99 80 72
63 42 33
65 39 33
0 0 0
0 0 0
35 14 12
35 14 12
140 114 102
51 51 51
17 28 9
102 81 72
0 0 0
99 80 72
0 0 0
0 0 0
0 0 0
0 0 0
0 0 0
6 2 10
58 55 55
28 20 20
0 0 0
36 51 36
0 0 1
2 0 3
10 10 6
0 0 0
0 0 1
72 72 72
25 15 30
6 6 3
51 51 51
54 51 53
60 56 56
242 183 255
255 200 255
0 0 0
31 32 18
57 54 56
32 23 24
2 10 1
0 0 0
6 1 12
46 63 49
54 63 56
51 44 44
51 44 44
103 80 80
164 133 133
164 136 136
103 73 72
64 31 29
78 90 57
0 0 0
55 90 40
0 0 0
40 57 40
0 0 0
49 40 25
20 57 20
0 0 0
78 90 57
0 0 0
0 0 0
78 90 57
0 0 0
78 90 57
78 90 57
0 0 0
63 99 38
53 41 26
78 90 57
0 0 0
0 0 0
0 0 0
0 0 0
78 90 57
88 107 70
0 0 0
0 0 0
39 90 28
78 90 57
0 0 0
0 0 0
78 90 57
136 131 105
72 88 58
62 36 32
103 86 73
108 82 73
108 88 75
117 88 79
70 80 51
44 72 32
0 0 0
56 32 28
35 14 12
51 51 51
44 36 22
0 0 0
0 0 0
0 0 0
51 51 51
140 114 102
25 14 9
0 0 0
0 0 0
0 0 0
44 36 22
99 80 72
99 80 72
0 0 0
99 80 72
171 140 125
3 0 7
5 1 3
0 0 0
51 51 51
51 51 51
0 0 0
0 0 0
9 2 14
0 0 0
70 62 68
18 8 23
7 1 7
0 0 0
0 0 0
32 22 22
0 0 1
29 20 23
0 0 0
10 2 15
88 61 100
180 135 203
207 155 231
103 78 119
28 17 34
6 1 11
51 51 51
30 30 31
2 0 3
1 0 3
0 0 0
0 0 0
0 0 0
0 0 0
0 0 0
113 68 64
99 70 62
0 0 0
0 0 0
22 41 20
0 0 0
0 0 0
96 128 70
110 128 80
0 0 0
0 0 0
0 0 0
20 57 20
78 90 57
78 90 57
55 90 40
39 90 28
20 57 20
27 62 23
110 128 80
0 0 0
78 90 57
55 90 40
19 90 14
0 0 0
78 90 57
78 90 57
39 90 28
78 90 57
111 140 81
78 90 57
0 0 0
0 0 0
0 0 0
55 90 40
78 90 57
0 0 0
80 92 62
122 126 83
43 20 15
116 106 94
36 51 36
0 0 0
70 80 51
98 70 67
150 131 108
62 36 32
25 28 12
0 0 0
0 0 0
0 0 0
0 0 0
0 0 0
99 80 72
51 51 51
101 81 72
0 0 0
62 36 32
0 0 0
0 0 0
99 80 72
99 80 72
99 80 72
8 10 3
0 0 0
0 0 0
16 6 13
25 15 30
0 0 0
0 0 0
32 22 22
0 0 0
25 15 31
51 51 51
55 52 53
72 72 72
0 0 0
51 51 51
32 22 22
69 61 67
12 5 7
0 0 0
25 28 28
10 3 9
90 61 109
135 96 158
126 87 150
130 81 160
125 88 145
125 89 146
58 52 63
12 4 18
55 53 52
44 36 40
40 57 40
20 17 24
0 0 0
0 0 0
16 14 7
11 34 8
15 107 12
104 140 80
28 90 21
27 90 20
0 0 0
78 90 57
0 0 0
83 107 64
19 90 14
0 0 0
87 128 64
114 132 87
78 90 57
0 0 0
35 40 18
0 0 0
0 0 0
88 107 70
0 0 0
0 0 0
83 95 65
78 90 57
19 90 14
78 90 57
40 57 40
0 0 0
39 90 28
55 128 40
78 90 57
0 0 0
0 0 0
0 0 0
40 57 40
0 0 0
0 0 0
70 80 51
0 0 0
55 90 40
44 36 22
129 142 98
14 11 5
2 4 0
140 114 102
17 25 9
72 38 34
48 48 34
118 89 79
255 255 255
255 255 255
255 255 255
255 255 255
255 255 255
99 80 72
0 0 0
151 118 106
117 88 79
62 36 32
0 0 0
17 14 6
0 0 0
62 36 32
140 114 102
0 0 0
56 32 28
62 36 32
44 36 22
0 0 0
0 0 0
18 9 9
18 15 21
0 0 0
25 15 30
0 0 0
0 0 0
5 1 5
76 74 78
2 0 5
75 74 77
20 11 15
0 0 0
9 2 14
36 24 27
12 8 16
63 54 69
95 54 121
87 49 113
135 91 160
147 102 175
146 101 171
124 83 148
80 55 96
36 28 39
28 31 31
20 25 15
41 54 43
0 0 0
88 107 70
25 25 18
0 0 0
0 0 0
25 25 18
28 31 31
14 57 14
0 0 0
60 48 48
88 107 70
0 0 0
135 156 99
110 128 80
0 0 0
57 80 57
28 26 18
110 140 81
40 57 40
82 99 58
0 0 0
35 40 18
88 107 70
78 90 57
0 0 0
40 57 40
0 0 0
78 90 57
0 0 0
124 166 94
39 90 28
40 57 40
112 145 77
0 0 0
0 0 0
78 90 57
39 90 28
12 25 9
0 0 0
39 90 28
97 121 80
49 40 25
121 134 84
121 134 84
92 99 62
91 90 59
72 62 48
35 14 12
99 80 72
45 35 19
255 255 255
255 255 255
255 255 255
255 255 255
255 255 255
255 255 255
255 255 255
255 255 255
255 255 255
0 0 0
99 80 72
35 14 12
0 0 0
0 0 0
99 80 72
99 80 72
0 0 0
0 0 0
0 0 0
0 0 0
0 0 0
0 0 0
0 0 0
0 0 0
0 0 0
0 0 0
0 0 0
0 0 0
0 0 0
0 0 0
0 0 0
0 0 0
0 0 0
0 0 0
0 0 0
22 12 17
70 40 36
0 0 0
35 15 44
132 90 156
85 52 108
208 156 234
255 240 255
252 192 255
121 78 148
50 27 66
22 22 16
46 33 33
51 44 29
0 0 0
78 90 57
49 40 25
78 90 57
40 57 40
49 40 25
20 57 20
39 90 28
85 99 60
28 15 15
138 159 100
9 4 8
24 40 12
40 57 40
78 90 57
0 0 0
19 25 14
78 90 57
16 11 8
40 57 40
75 90 62
0 0 0
110 128 80
61 94 44
25 40 13
144 161 102
0 0 0
0 0 0
0 0 0
88 107 70
42 57 40
58 54 33
121 140 84
0 0 0
0 0 0
116 134 82
9 8 2
0 0 0
0 0 0
68 107 57
16 60 14
92 99 62
78 90 57
22 18 8
49 40 25
91 67 47
44 36 22
117 67 60
82 54 42
62 36 32
255 255 255
255 255 255
255 255 255
255 255 255
255 255 255
255 255 255
255 255 255
255 255 255
255 255 255
255 255 255
255 255 255
0 0 0
0 0 0
0 0 0
0 0 0
0 0 0
0 0 0
0 0 0
62 36 32
0 0 0
0 0 0
35 14 12
36 25 25
0 0 0
0 0 0
0 0 0
11 4 4
0 0 0
26 25 19
14 10 7
0 0 0
6 1 7
0 0 0
0 0 0
21 11 10
0 0 0
0 0 0
22 22 16
0 0 0
33 22 26
109 67 136
113 71 140
154 109 180
225 171 250
181 134 204
116 82 137
60 30 48
70 40 36
44 36 23
25 25 18
10 5 3
43 57 40
110 128 80
28 57 28
0 0 0
0 0 0
0 0 1
78 90 57
40 26 26
0 0 0
40 57 40
1 2 1
60 82 58
28 31 31
100 140 75
0 0 0
0 0 0
0 0 0
0 0 0
0 0 0
72 82 56
50 40 25
0 0 0
0 0 0
14 9 18
0 0 0
0 0 0
0 0 0
40 57 40
70 80 51
0 0 0
0 0 0
65 99 44
40 57 40
58 51 29
14 57 14
7 18 2
49 40 25
0 0 0
56 91 40
0 0 0
107 107 67
105 107 67
152 173 111
101 114 74
126 107 76
104 63 54
121 70 62
101 58 51
255 255 255
255 255 255
255 255 255
255 255 255
255 255 255
255 255 255
255 255 255
255 255 255
255 255 255
255 255 255
255 255 255
255 255 255
255 255 255
80 43 38
117 71 59
70 40 36
39 16 14
70 40 36
0 0 0
49 40 25
0 0 0
70 40 36
62 36 32
0 0 0
18 7 15
0 0 0
0 0 0
70 40 36
0 0 0
62 36 32
0 0 0
0 0 0
25 14 19
41 27 27
0 0 0
0 0 0
0 0 0
27 12 18
4 1 5
0 0 0
36 25 25
100 69 115
97 63 120
225 169 251
255 233 255
186 139 208
68 42 86
16 22 11
9 4 8
36 25 25
78 90 57
78 90 57
0 0 0
27 20 17
92 99 62
0 0 0
56 107 49
0 0 0
0 0 0
51 44 44
0 0 0
0 0 0
40 57 40
83 95 60
40 57 40
0 0 0
78 90 57
25 25 18
25 25 18
0 0 0
0 0 0
0 0 0
40 57 40
110 128 80
0 0 0
49 40 25
0 0 0
0 0 0
78 90 57
0 0 0
0 0 0
88 107 70
88 107 70
0 0 0
94 107 70
88 107 70
82 107 51
78 90 57
78 90 57
78 90 57
97 100 63
11 18 4
78 90 57
156 181 114
35 40 18
78 90 57
70 40 36
99 57 51
140 80 72
255 255 255
255 255 255
255 255 255
255 255 255
255 255 255
255 255 255
255 255 255
255 255 255
255 255 255
255 255 255
255 255 255
255 255 255
255 255 255
255 255 255
127 71 64
100 60 54
0 0 0
70 40 36
121 70 62
0 0 0
0 0 0
99 57 51
70 40 36
0 0 0
70 40 36
0 0 0
0 0 0
0 0 0
18 7 15
25 14 19
0 0 0
0 0 0
36 25 25
22 18 8
34 23 25
23 16 13
36 25 26
0 0 0
3 0 3
0 0 1
54 37 39
14 4 14
51 36 37
83 62 93
92 60 107
105 67 125
68 46 82
19 7 17
52 36 38
42 27 28
55 41 40
91 66 60
30 18 21
36 25 25
97 121 80
92 99 62
0 0 0
92 99 62
0 0 0
0 0 0
88 107 70
80 94 59
114 130 83
81 92 58
40 57 40
78 90 57
0 0 0
82 94 60
0 0 0
0 0 0
49 40 25
19 8 5
78 90 57
0 0 0
78 90 57
82 94 60
110 128 80
3 2 3
121 134 84
40 57 40
0 0 0
118 140 90
92 99 62
70 57 36
110 128 80
78 90 57
156 181 114
0 0 0
0 0 0
92 99 62
78 90 57
92 99 62
110 128 80
49 40 25
31 18 11
80 93 57
102 60 52
99 57 51
99 57 51
255 255 234
255 255 255
255 255 255
255 255 255
255 255 255
255 255 255
255 255 255
255 255 255
255 255 255
255 255 255
255 255 255
255 255 255
255 255 255
255 255 255
255 255 255
204 161 144
70 40 36
121 70 62
99 57 51
70 40 36
44 36 22
0 0 0
0 0 0
39 16 14
103 65 53
0 0 0
2 0 3
0 0 0
45 18 24
2 0 2
32 22 22
0 0 0
9 2 9
25 14 20
36 25 25
0 0 0
36 25 25
37 25 27
40 26 30
36 25 25
52 32 39
65 45 48
61 39 46
104 71 76
67 45 50
103 70 75
93 65 66
65 41 48
94 61 70
72 49 54
69 51 49
51 36 36
36 25 26
40 27 29
37 18 31
4 3 3
81 57 57
83 57 57
70 40 36
70 40 36
79 65 65
0 0 0
49 40 25
0 0 0
0 0 0
40 57 40
0 0 0
0 0 0
62 44 44
87 65 57
0 0 0
0 0 0
0 0 0
0 0 0
0 0 0
0 0 0
0 0 0
105 99 67
70 40 36
78 90 57
108 76 76
118 78 76
0 0 0
36 25 25
0 0 0
0 0 0
0 0 0
0 0 0
114 105 71
0 0 0
18 25 12
0 0 0
105 107 68
74 47 40
0 0 0
135 156 99
87 95 62
0 0 0
70 40 36
99 58 51
255 255 255
255 255 255
255 255 255
255 255 255
255 255 255
255 255 255
135 85 108
78 49 62
110 90 80
235 187 173
247 202 181
135 103 102
255 255 255
255 255 255
255 255 255
255 255 255
0 0 0
70 40 36
0 0 0
0 0 0
140 80 72
0 0 0
121 70 62
0 0 0
70 40 36
12 4 11
0 0 0
79 48 45
4 0 5
0 0 0
51 36 36
0 0 0
3 0 4
24 15 17
4 0 5
10 2 10
0 0 0
51 22 33
37 25 27
45 36 32
26 14 21
60 39 45
70 44 52
53 32 41
63 44 46
65 41 49
53 31 41
70 42 54
22 8 22
50 37 38
50 30 38
63 41 48
19 9 15
39 27 28
14 12 10
1 0 0
0 0 0
0 0 0
0 0 0
0 0 0
70 40 36
0 0 0
0 0 0
70 40 36
0 0 0
84 43 38
0 0 0
0 0 0
0 0 0
0 0 0
0 0 0
0 0 0
0 0 0
36 25 25
0 0 0
0 0 0
0 0 0
0 0 0
0 0 0
36 25 25
0 0 0
70 40 36
0 0 0
0 0 0
0 0 0
0 0 0
100 60 54
99 57 51
0 0 0
70 40 36
0 0 0
70 40 36
99 57 51
70 40 36
108 67 56
14 8 3
86 96 60
0 0 0
101 60 51
195 158 140
255 255 255
255 255 255
255 255 255
255 255 255
255 255 255
255 255 255
49 22 28
0 0 0
70 31 39
49 22 28
28 6 7
0 0 0
255 255 255
255 255 255
255 255 255
255 255 255
70 40 36
0 0 0
99 57 51
0 0 0
117 67 60
0 0 0
0 0 0
70 40 36
70 40 36
0 0 1
32 22 23
0 0 0
36 25 25
60 42 42
3 0 4
0 0 0
36 25 25
36 25 25
36 25 25
0 0 0
12 4 12
0 0 0
51 36 36
0 0 0
62 36 32
62 44 44
11 2 11
87 52 54
42 27 32
19 14 15
19 8 11
49 30 37
28 14 23
70 40 36
31 15 25
0 0 0
99 57 52
0 0 0
37 28 25
0 0 0
44 18 16
0 0 0
71 40 36
70 40 36
20 7 7
0 0 0
0 0 0
36 25 25
0 0 0
0 0 0
0 0 0
0 0 0
0 0 0
0 0 0
0 0 0
0 0 0
0 0 0
0 0 0
0 0 0
0 0 0
0 0 0
0 0 0
0 0 0
0 0 0
99 57 51
0 0 0
0 0 0
0 0 0
0 0 0
0 0 0
70 40 36
70 40 36
70 40 36
0 0 0
0 0 0
99 57 51
70 40 36
0 0 0
70 40 36
0 0 0
18 7 15
0 0 0
0 0 0
255 255 255
255 255 255
255 255 255
255 255 255
255 255 255
255 255 255
255 255 255
52 23 29
49 22 28
58 24 30
0 0 0
0 0 0
49 22 28
255 255 255
255 255 255
255 255 255
255 255 231
121 70 62
94 54 48
0 0 0
70 40 36
0 0 0
70 40 36
0 0 0
70 40 36
62 36 32
0 0 0
54 37 39
0 0 0
0 0 0
1 0 1
0 0 0
25 14 19
36 25 25
1 0 2
44 29 32
1 0 2
12 4 12
51 36 36
1 0 1
36 25 25
37 25 27
40 16 16
0 0 1
36 25 25
0 0 0
67 34 34
28 14 23
0 0 0
36 25 25
0 0 0
12 4 11
16 11 8
0 0 0
16 11 8
70 40 36
0 0 0
0 0 0
44 18 16
0 0 0
0 0 0
0 0 0
0 0 0
0 0 0
0 0 0
0 0 0
32 19 19
70 40 36
70 40 36
0 0 0
0 0 0
0 0 0
0 0 0
0 0 0
70 40 36
0 0 0
0 0 0
0 0 0
0 0 0
62 36 32
70 40 36
0 0 0
0 0 0
0 0 0
0 0 0
0 0 0
0 0 0
0 0 0
70 40 36
0 0 0
0 0 0
0 0 0
0 0 0
0 0 0
0 0 0
70 40 36
0 0 0
31 18 11
0 0 0
70 40 36
255 255 255
255 255 255
255 255 255
255 255 255
255 255 255
255 255 255
255 255 255
92 39 50
0 0 0
0 0 0
70 31 39
49 22 28
49 22 28
255 255 255
255 255 255
255 255 255
121 70 62
0 0 0
0 0 0
99 57 51
0 0 0
0 0 0
20 10 10
71 40 36
70 40 36
70 40 36
0 0 0
0 0 0
0 0 0
0 0 0
0 0 0
36 25 25
0 0 0
18 7 15
13 3 12
36 25 25
0 0 0
12 4 11
0 0 0
44 29 32
0 0 0
51 36 36
70 40 36
1 0 1
0 0 0
36 25 25
12 4 11
78 47 44
70 40 36
51 36 37
36 25 25
0 0 0
18 7 15
36 25 25
37 25 27
0 0 0
0 0 0
0 0 0
5 1 1
62 36 32
0 0 0
0 0 0
0 0 0
0 0 0
0 0 0
0 0 0
0 0 0
0 0 0
0 0 0
0 0 0
0 0 0
0 0 0
0 0 0
0 0 0
0 0 0
0 0 0
0 0 0
70 40 36
0 0 0
0 0 0
0 0 0
0 0 0
0 0 0
0 0 0
0 0 0
0 0 0
0 0 0
0 0 0
0 0 0
0 0 0
70 40 36
0 0 0
0 0 0
0 0 0
0 0 0
0 0 0
0 0 0
70 40 36
99 57 51
0 0 0
232 185 165
255 255 255
255 255 255
255 255 255
255 255 255
255 255 255
255 255 255
25 14 19
0 0 0
49 22 28
49 22 28
49 22 28
0 0 0
255 255 255
255 255 255
255 255 255
0 0 0
99 57 51
100 57 51
70 40 36
121 70 62
70 40 36
0 0 0
0 0 0
99 57 51
121 70 62
0 0 0
0 0 0
0 0 0
0 0 0
12 4 11
0 0 0
61 47 36
0 0 0
12 4 11
36 25 25
4 0 5
51 36 36
36 25 25
18 7 15
36 25 25
0 0 0
0 0 0
0 0 0
70 40 36
0 0 0
48 32 32
0 0 0
0 0 0
0 0 0
32 19 19
25 14 19
32 19 20
70 40 36
0 0 0
0 0 0
0 0 0
44 18 16
28 8 7
0 0 0
0 0 0
0 0 0
0 0 0
0 0 0
0 0 0
0 0 0
0 0 0
0 0 0
0 0 0
0 0 0
0 0 0
0 0 0
0 0 0
28 15 15
0 0 0
0 0 0
0 0 0
0 0 0
44 18 16
0 0 0
70 40 36
0 0 0
0 0 0
0 0 0
0 0 0
0 0 0
9 2 2
0 0 0
0 0 0
0 0 0
0 0 0
0 0 0
0 0 0
0 0 0
0 0 0
0 0 0
0 0 0
0 0 0
99 57 51
121 70 62
171 99 88
255 255 255
255 255 255
255 255 255
255 255 255
255 255 255
255 255 255
70 31 39
49 22 28
59 26 34
70 31 39
32 10 13
70 31 39
255 255 255
255 255 255
0 0 0
121 70 62
99 57 51
99 57 51
70 40 36
70 40 36
0 0 0
70 40 36
121 70 62
70 40 36
0 0 0
0 0 0
70 40 36
0 0 0
0 0 0
0 0 0
0 0 0
70 40 36
0 0 0
0 0 0
0 0 0
70 40 36
25 14 19
0 0 0
70 40 36
0 0 0
1 0 2
0 0 0
0 0 0
70 40 36
0 0 0
78 47 44
39 16 14
0 0 0
0 0 0
99 57 51
0 0 0
32 19 19
6 1 7
0 0 0
0 0 0
0 0 0
9 2 2
78 41 37
0 0 0
36 14 13
0 0 0
0 0 0
0 0 0
0 0 0
0 0 0
0 0 0
0 0 0
22 11 11
20 8 8
0 0 0
0 0 0
0 0 0
0 0 0
7 0 0
0 0 0
0 0 0
0 0 0
0 0 0
0 0 0
28 8 7
0 0 0
33 8 7
19 4 3
22 11 11
0 0 0
44 18 16
22 11 11
44 18 16
0 0 0
70 40 36
0 0 0
44 18 16
0 0 0
0 0 0
5 0 2
0 0 0
75 41 36
121 70 62
70 40 36
99 57 51
255 255 255
255 255 255
255 255 255
255 255 255
255 255 255
255 255 255
255 255 255
255 255 255
255 255 255
255 255 255
255 255 255
255 255 255
255 255 255
80 43 38
122 72 65
99 57 51
121 70 62
70 40 36
121 70 62
0 0 0
0 0 0
99 57 51
99 57 51
70 40 36
0 0 0
18 7 15
0 0 0
70 40 36
0 0 0
0 0 0
0 0 0
28 15 15
0 0 0
36 25 25
36 25 25
28 15 15
36 23 23
0 0 0
0 0 0
0 0 0
0 0 0
42 28 31
32 19 19
99 57 51
50 29 29
9 2 9
78 47 44
28 15 15
0 0 0
70 40 36
11 1 1
36 25 25
36 25 25
0 0 0
0 0 0
0 0 0
36 25 25
80 47 44
103 60 52
0 0 0
36 25 25
36 25 25
2 0 3
48 32 32
56 34 34
36 25 25
75 41 36
77 45 41
80 48 44
70 40 36
44 18 16
36 25 25
45 26 26
0 0 0
0 0 0
44 29 32
99 57 51
70 40 36
0 0 0
0 0 0
142 81 72
0 0 0
75 41 36
0 0 0
0 0 0
78 47 44
75 41 36
70 40 36
140 80 72
70 40 36
70 40 36
96 67 67
31 9 8
99 57 51
0 0 0
0 0 0
156 90 80
171 99 88
140 81 73
99 57 51
121 70 62
255 255 255
255 255 255
255 255 255
255 255 255
255 255 255
255 255 255
255 255 255
255 255 255
255 255 255
255 255 255
255 255 255
99 57 51
70 40 36
121 70 62
156 90 80
99 57 51
71 40 36
0 0 0
140 80 72
70 40 36
121 70 62
70 40 36
0 0 0
0 0 0
18 14 14
70 40 36
36 25 25
0 0 0
72 44 41
25 11 11
8 4 2
25 14 19
5 1 6
36 25 25
0 0 0
51 36 36
32 19 19
18 7 15
46 29 29
70 40 36
14 3 3
0 0 0
0 0 0
36 25 25
86 54 51
20 8 8
0 0 0
42 20 20
51 36 36
70 40 36
0 0 0
62 36 32
0 0 0
0 0 0
0 0 0
54 32 32
28 15 15
111 72 70
61 39 38
2 0 0
34 19 19
14 3 3
61 37 37
86 54 51
45 28 28
0 0 0
0 0 0
0 0 0
6 1 3
122 70 63
95 56 52
0 0 1
0 0 0
0 0 0
70 40 36
100 57 51
99 57 51
70 40 36
78 47 44
70 40 36
108 67 60
126 74 67
99 57 51
99 57 51
99 57 51
70 40 36
140 80 72
124 71 64
121 70 62
70 40 36
128 80 76
71 40 36
142 81 72
70 40 36
0 0 0
0 0 0
121 70 62
156 90 80
171 99 88
156 90 80
210 121 108
255 255 255
255 255 255
255 255 255
255 255 255
255 255 255
255 255 255
255 255 255
255 255 255
255 255 255
140 80 72
171 99 88
117 67 60
156 90 80
140 80 72
121 70 62
99 57 51
126 74 67
121 70 62
121 70 62
70 40 36
0 0 0
121 70 62
99 57 51
0 0 0
36 25 25
0 0 0
0 0 0
0 0 0
36 25 25
0 0 0
0 0 0
0 0 0
5 1 1
0 0 0
36 25 25
0 0 0
0 0 0
36 25 25
0 0 0
0 0 0
36 25 25
0 0 0
0 0 0
74 42 38
0 0 0
14 5 5
0 0 0
36 25 25
0 0 0
67 45 45
32 19 19
0 0 0
0 0 0
36 25 25
64 41 44
60 41 41
102 72 72
62 33 32
51 36 36
20 7 7
79 47 44
78 43 39
78 47 44
90 55 52
70 40 36
0 0 0
45 28 28
39 26 29
111 67 62
39 22 22
186 104 93
0 0 0
0 0 0
78 47 44
99 57 51
0 0 0
36 25 25
99 57 51
149 83 74
45 26 26
99 57 51
171 99 88
36 25 25
97 57 53
78 47 44
94 60 57
175 102 92
78 46 43
126 74 67
119 82 84
149 88 80
121 70 62
78 47 44
0 0 0
99 57 51
185 107 95
188 110 99
221 128 114
198 114 102
255 151 135
224 130 117
255 189 169
255 255 255
255 255 255
255 255 255
255 255 255
255 255 255
247 181 161
210 121 108
156 90 80
210 121 108
104 60 54
185 107 95
156 90 80
156 90 80
121 70 62
140 80 72
171 99 88
140 80 72
156 90 80
99 57 51
99 57 51
140 80 72
25 11 11
0 0 0
0 0 0
0 0 0
0 0 0
0 0 0
0 0 0
32 19 19
0 0 0
0 0 0
3 0 4
6 2 2
46 29 29
4 0 4
0 0 0
36 25 25
0 0 0
0 0 0
70 40 36
51 36 36
0 0 0
0 0 0
0 0 0
0 0 0
36 25 25
0 0 0
0 0 0
80 43 38
46 26 26
0 0 0
86 54 51
51 36 36
78 47 44
91 63 63
111 67 62
36 25 25
105 62 57
78 47 44
85 51 48
36 25 25
45 28 28
32 19 19
0 0 0
36 25 25
30 13 13
71 40 36
22 11 11
73 42 37
81 48 45
104 58 51
70 40 36
90 47 43
100 60 54
28 8 7
70 40 36
142 81 73
78 47 44
99 57 51
99 57 51
126 74 67
106 58 52
101 58 52
99 57 51
113 67 62
0 0 0
170 99 90
97 62 61
216 126 114
182 108 99
134 76 69
0 0 0
129 72 64
244 140 125
198 114 102
255 151 135
255 154 138
242 140 125
255 181 162
255 163 146
255 178 159
255 176 157
255 156 140
255 156 140
255 199 179
255 176 157
255 161 144
255 158 142
255 161 144
255 150 134
210 121 108
242 140 125
121 70 62
185 107 95
198 114 102
232 134 120
99 57 51
140 80 72
121 70 62
70 40 36
121 70 62
0 0 0
0 0 0
0 0 0
0 0 0
78 47 44
0 0 0
0 0 0
0 0 0
36 25 25
70 40 36
0 0 0
36 25 25
0 0 0
32 19 19
37 25 27
1 0 1
0 0 0
36 25 25
51 36 36
39 16 14
36 25 25
34 20 20
36 25 25
51 36 36
95 60 57
70 40 36
37 25 25
36 25 25
83 49 45
0 0 0
62 25 22
77 51 51
70 43 43
22 11 11
33 19 19
36 25 25
90 47 43
56 37 37
36 25 25
97 61 58
85 39 37
80 42 37
45 26 26
54 40 22
0 0 0
36 25 25
86 49 46
83 48 44
110 60 54
110 63 57
124 70 63
77 41 37
0 0 0
111 67 62
140 80 72
71 40 36
101 58 52
100 57 51
87 54 51
131 73 65
99 57 51
96 54 51
131 78 72
123 71 63
153 87 79
131 78 72
182 110 103
162 99 92
185 107 95
55 20 18
0 0 0
232 134 120
221 128 114
213 124 111
255 152 136
255 202 181
255 162 144
255 185 165
255 203 181
255 221 198
255 195 175
255 202 181
255 194 173
255 187 167
255 161 144
255 202 181
255 181 161
255 166 149
232 134 120
255 165 148
198 114 102
219 126 113
198 114 102
221 128 114
185 107 95
140 80 72
156 90 80
140 80 72
140 80 72
121 70 62
23 9 9
70 40 36
0 0 0
39 16 14
36 25 25
0 0 0
0 0 0
0 0 0
35 20 20
28 8 7
0 0 0
0 0 0
28 15 15
0 0 0
0 0 0
0 0 0
0 0 0
0 0 0
71 40 36
36 25 25
0 0 0
0 0 0
59 31 30
0 0 0
100 57 51
36 25 25
0 0 0
51 36 36
86 52 48
0 0 0
0 0 0
45 18 17
86 54 51
64 42 42
121 75 70
99 57 57
70 40 36
42 28 28
94 60 57
103 59 52
105 59 52
57 35 34
51 36 36
0 0 0
101 58 52
65 40 39
81 48 44
42 28 28
105 62 57
48 29 29
70 40 36
28 8 7
29 8 7
108 59 53
86 49 46
83 44 39
106 61 56
112 63 58
104 58 51
59 21 19
129 72 64
86 54 51
130 74 69
145 81 73
196 116 107
122 67 61
168 100 93
150 85 77
134 76 69
0 0 0
145 85 77
255 158 143
239 135 121
255 162 144
255 173 155
255 165 148
255 211 189
255 199 179
255 218 195
255 226 202
255 237 212
255 216 193
255 232 207
255 185 165
255 206 184
255 206 184
255 214 191
252 145 130
255 171 153
255 171 153
210 121 108
246 144 127
212 121 109
171 99 88
156 90 80
198 114 102
185 107 95
171 99 88
140 80 72
156 90 80
0 0 0
70 40 36
0 0 0
70 40 36
0 0 0
0 0 0
0 0 0
0 0 0
0 0 0
36 25 25
70 40 36
44 36 22
0 0 0
36 25 25
0 0 0
0 0 0
78 47 44
0 0 0
0 0 0
46 26 26
0 0 0
0 0 0
5 1 1
60 41 41
51 36 36
32 19 19
62 44 44
62 44 44
71 40 36
75 49 49
36 25 25
17 3 3
72 51 51
52 36 36
36 25 25
59 30 30
73 51 51
72 42 42
81 42 38
94 60 57
88 54 52
36 25 25
103 57 51
14 5 5
6 1 1
28 8 7
96 61 58
55 30 29
75 41 36
106 58 52
87 54 51
52 30 23
60 34 33
56 28 28
80 48 44
89 51 47
83 48 44
113 66 61
99 57 51
75 41 36
104 65 63
152 86 77
148 88 82
133 85 81
90 54 51
160 94 84
130 75 68
186 107 96
146 90 84
132 72 65
237 138 124
183 105 97
255 152 136
232 134 120
255 158 142
255 156 140
255 181 161
255 207 185
255 194 173
255 178 160
255 198 177
255 202 181
255 210 189
255 210 189
255 190 169
255 189 169
255 156 140
255 176 157
255 171 153
255 194 173
185 107 95
252 145 130
255 166 149
223 128 114
185 107 95
121 70 62
185 107 95
171 99 88
99 57 51
185 107 95
0 0 0
49 40 25
0 0 0
0 0 0
0 0 0
0 0 0
36 25 25
28 15 15
0 0 0
0 0 0
0 0 0
36 25 25
0 0 0
100 57 51
0 0 0
0 0 0
0 0 0
36 25 25
36 25 25
78 47 44
48 14 12
22 11 11
60 41 41
1 0 0
62 44 44
28 15 15
36 25 25
7 0 0
14 5 5
28 15 15
70 40 36
0 0 0
14 5 5
30 11 11
0 0 0
31 9 8
45 26 26
36 25 25
67 34 32
45 26 26
58 31 31
94 56 53
70 40 36
55 28 28
5 1 1
59 37 36
28 8 7
84 49 45
48 14 12
101 57 51
51 36 36
23 9 9
94 56 53
50 21 19
57 18 14
103 57 51
69 33 31
130 75 68
69 45 44
93 50 46
105 62 57
90 51 47
58 37 36
133 76 71
164 95 85
62 44 44
160 91 81
149 86 81
144 84 76
157 90 81
160 94 84
197 113 103
129 75 68
255 158 141
232 134 120
198 114 102
237 137 123
255 167 149
255 152 136
255 190 170
235 136 122
255 157 140
255 156 140
255 189 169
255 171 153
255 151 135
244 138 126
255 152 136
255 176 158
190 108 97
224 128 115
203 115 103
198 114 102
252 145 130
198 114 102
171 99 88
210 118 109
171 99 88
187 107 96
78 47 44
36 25 25
0 0 0
0 0 0
20 7 7
0 0 0
0 0 0
0 0 0
0 0 0
44 36 22
0 0 0
0 0 0
0 0 0
0 0 0
0 0 0
36 25 25
3 0 3
70 40 36
36 25 25
22 11 11
0 0 0
42 28 28
14 5 5
0 0 0
0 0 0
12 3 3
0 0 0
36 25 25
45 28 28
23 9 8
0 0 0
76 41 37
70 40 36
52 36 36
5 1 1
88 54 51
56 33 33
0 0 0
23 11 11
32 19 19
36 10 9
17 5 5
45 26 26
0 0 0
14 5 5
36 14 13
65 32 30
136 80 73
36 25 25
39 11 10
75 41 36
84 44 39
37 10 10
39 11 10
101 58 52
56 28 27
100 58 54
76 43 39
81 42 37
110 63 57
65 18 17
42 12 11
95 51 47
160 90 81
107 63 57
191 108 97
157 95 88
112 67 62
174 99 89
82 44 39
86 49 46
136 77 70
182 102 91
188 110 99
203 115 103
163 94 85
129 75 68
232 134 120
226 129 115
210 121 108
212 121 108
221 128 114
221 128 114
221 128 114
243 141 124
206 116 106
232 134 120
221 128 114
236 135 121
216 123 112
210 121 108
174 99 89
232 134 120
198 114 102
198 114 102
221 128 114
210 121 108
156 90 80
140 80 72
121 70 62
210 121 108
62 36 32
0 0 0
0 0 0
70 40 36
70 40 36
25 11 11
0 0 0
0 0 0
0 0 0
36 25 25
4 0 4
70 40 36
0 0 0
0 0 0
70 40 36
0 0 0
0 0 0
0 0 0
0 0 0
0 0 0
56 31 30
11 1 1
15 2 2
0 0 0
37 25 25
38 26 26
36 25 25
28 8 7
0 0 0
31 9 8
70 40 36
0 0 0
32 19 19
40 26 26
28 8 7
36 25 25
0 0 0
50 19 17
4 0 0
70 40 36
83 42 38
103 57 51
36 25 25
0 0 0
17 4 11
36 25 25
112 64 58
39 11 10
14 5 5
78 41 37
39 11 10
99 57 51
62 39 39
124 71 63
121 70 62
106 58 52
30 8 7
101 58 52
83 48 44
88 49 45
78 42 38
71 40 36
110 61 58
86 54 51
103 57 51
120 72 68
101 58 52
144 82 73
124 70 63
108 61 55
146 81 73
145 82 74
200 114 102
100 57 51
130 75 68
148 83 77
156 90 80
164 95 85
118 61 55
132 72 65
185 107 95
193 109 100
159 91 81
171 99 88
119 62 61
210 121 108
158 91 81
140 80 72
124 70 63
187 107 96
121 70 62
171 99 88
108 60 53
156 90 80
164 93 85
171 99 88
185 107 95
156 90 80
78 47 44
156 90 80
0 0 0
22 11 11
0 0 0
0 0 0
0 0 0
0 0 0
1 0 1
0 0 0
0 0 0
57 44 34
0 0 0
36 25 25
4 0 0
0 0 0
0 0 0
36 25 25
70 40 36
0 0 0
0 0 0
0 0 0
25 8 8
28 6 5
0 0 0
36 25 25
70 40 36
22 11 11
0 0 0
0 0 0
0 0 0
0 0 0
14 5 5
0 0 0
45 18 16
0 0 0
29 12 12
82 45 41
11 1 1
83 46 42
9 2 2
5 1 1
0 0 0
28 8 7
42 21 21
11 1 1
42 28 28
75 41 36
0 0 0
70 40 36
105 62 57
100 57 51
11 1 1
77 41 37
77 41 37
71 40 36
83 48 44
28 8 7
40 15 14
92 51 47
81 43 39
99 57 51
14 5 5
71 40 36
77 41 37
70 40 36
83 49 46
61 21 19
74 42 37
71 32 29
118 65 59
94 47 42
108 63 58
122 69 65
99 57 51
173 94 84
140 80 72
142 81 72
44 18 16
85 42 38
39 11 10
125 65 58
121 70 62
82 44 39
70 40 36
99 57 51
121 70 62
121 70 62
140 80 72
200 114 103
140 80 72
121 70 62
121 70 62
121 70 62
99 57 51
140 80 72
171 99 88
99 57 51
99 57 51
121 70 62
110 61 58
99 57 51
0 0 0
0 0 0
0 0 0
0 0 0
28 8 7
36 25 25
0 0 0
32 19 19
6 1 7
0 0 0
70 40 36
0 0 0
0 0 0
0 0 0
0 0 0
0 0 0
10 2 2
0 0 0
0 0 0
0 0 0
0 0 0
0 0 0
71 40 36
0 0 0
0 0 0
0 0 0
0 0 0
70 40 36
11 1 1
0 0 0
14 5 5
0 0 0
14 2 2
14 5 5
20 7 7
28 8 7
23 11 11
54 20 18
37 25 25
3 0 0
0 0 0
70 40 36
1 0 0
28 8 7
17 5 5
28 8 7
78 41 37
93 58 45
76 41 37
14 5 5
0 0 0
31 9 8
70 40 36
99 57 51
63 36 32
58 37 36
81 42 37
73 42 37
20 6 6
127 74 67
103 57 51
75 41 36
100 57 51
88 45 40
76 41 37
108 60 53
84 43 39
70 40 36
92 49 46
31 9 8
87 48 45
88 49 45
122 70 62
49 21 19
47 16 15
82 44 39
14 5 7
159 90 81
98 48 43
82 44 39
127 71 63
68 26 24
99 57 51
103 57 51
70 40 36
99 57 51
99 57 51
0 0 0
110 61 58
121 70 62
103 57 51
70 40 36
121 70 62
99 57 51
99 57 51
99 57 51
70 40 36
185 107 95
70 40 36
70 40 36
0 0 0
70 40 36
0 0 0
0 0 0
0 0 0
0 0 0
8 1 1
0 0 0
0 0 0
0 0 0
70 40 36
0 0 0
0 0 0
0 0 0
70 40 36
0 0 0
0 0 0
0 0 0
0 0 0
32 19 19
10 5 3
0 0 0
9 2 2
22 11 11
0 0 0
0 0 0
70 40 36
0 0 0
62 36 32
0 0 0
14 5 5
0 0 0
0 0 0
43 17 15
28 8 7
29 8 7
32 19 19
82 44 39
36 25 25
0 0 0
0 0 0
121 70 62
39 25 25
0 0 0
51 36 36
70 40 36
11 1 1
36 14 13
14 5 5
70 40 36
33 8 7
28 8 7
28 8 7
124 70 63
75 41 36
75 41 36
51 36 36
109 63 58
75 41 36
103 57 51
75 41 36
101 58 52
15 5 5
52 19 17
99 57 51
115 64 59
0 0 0
38 24 18
71 40 36
99 57 51
96 46 41
70 40 36
9 2 9
70 40 36
140 75 67
29 8 7
76 41 38
71 40 36
99 57 51
71 40 36
76 41 38
99 57 51
71 40 36
103 58 52
85 49 45
121 70 62
121 70 62
70 40 36
70 40 36
156 90 80
90 51 47
103 57 51
70 40 36
75 41 36
140 80 72
121 70 62
70 40 36
121 70 62
70 40 36
70 40 36
