P3
100 56
255
0 0 0
0 0 0
0 0 0
0 0 0
0 0 0
0 0 0
0 0 0
0 0 0
0 0 0
0 0 0
0 0 0
0 0 0
0 0 0
0 0 0
0 0 0
0 0 0
0 0 0
0 0 0
0 0 0
0 0 0
0 0 0
0 0 0
0 0 0
0 0 0
0 0 0
0 0 0
0 0 0
0 0 0
0 0 0
0 0 0
0 0 0
0 0 0
0 0 0
0 0 0
0 0 0
0 0 0
0 0 0
0 0 0
255 255 255
255 255 255
255 255 255
255 255 255
255 255 255
255 255 255
255 255 255
255 255 255
255 255 255
255 255 255
255 255 255
255 255 255
255 255 255
255 255 255
255 255 255
255 255 255
255 255 255
255 255 255
255 255 255
255 255 255
255 255 255
255 255 255
255 255 255
255 255 255
0 0 0
0 0 0
0 0 0
0 0 0
0 0 0
0 0 0
0 0 0
0 0 0
0 0 0
0 0 0
0 0 0
0 0 0
0 0 0
0 0 0
0 0 0
0 0 0
0 0 0
0 0 0
0 0 0
0 0 0
0 0 0
0 0 0
0 0 0
0 0 0
0 0 0
0 0 0
0 0 0
0 0 0
0 0 0
0 0 0
0 0 0
0 0 0
0 0 0
0 0 0
0 0 0
0 0 0
0 0 0
0 0 0
0 0 0
0 0 0
0 0 0
0 0 0
0 0 0
0 0 0
0 0 0
0 0 0
0 0 0
0 0 0
0 0 0
0 0 0
0 0 0
0 0 0
0 0 0
0 0 0
0 0 0
0 0 0
0 0 0
0 0 0
0 0 0
0 0 0
0 0 0
0 0 0
0 0 0
0 0 0
0 0 0
0 0 0
0 0 0
0 0 0
0 0 0
0 0 0
0 0 0
0 0 0
0 0 0
0 0 0
0 0 0
0 0 0
255 255 255
255 255 255
255 255 255
255 255 255
255 255 255
255 255 255
255 255 255
255 255 255
255 255 255
255 255 255
255 255 255
255 255 255
255 255 255
255 255 255
255 255 255
255 255 255
255 255 255
255 255 255
255 255 255
255 255 255
255 255 255
255 255 255
255 255 255
255 255 255
0 0 0
0 0 0
0 0 0
0 0 0
0 0 0
0 0 0
0 0 0
0 0 0
0 0 0
0 0 0
0 0 0
0 0 0
0 0 0
0 0 0
0 0 0
0 0 0
0 0 0
0 0 0
0 0 0
0 0 0
0 0 0
0 0 0
0 0 0
0 0 0
0 0 0
0 0 0
0 0 0
0 0 0
0 0 0
0 0 0
0 0 0
0 0 0
0 0 0
0 0 0
0 0 0
0 0 0
0 0 0
0 0 0
0 0 0
0 0 0
0 0 0
0 0 0
0 0 0
0 0 0
0 0 0
0 0 0
0 0 0
0 0 0
0 0 0
0 0 0
0 0 0
0 0 0
0 0 0
0 0 0
0 0 0
0 0 0
0 0 0
0 0 0
0 0 0
0 0 0
0 0 0
0 0 0
0 0 0
0 0 0
0 0 0
0 0 0
0 0 0
0 0 0
0 0 0
0 0 0
0 0 0
0 0 0
0 0 0
0 0 0
0 0 0
0 0 0
161 161 161
255 255 255
255 255 255
255 255 255
255 255 255
255 255 255
255 255 255
255 255 255
255 255 255
255 255 255
255 255 255
255 255 255
255 255 255
255 255 255
255 255 255
255 255 255
255 255 255
255 255 255
255 255 255
255 255 255
255 255 255
255 255 255
255 255 255
140 140 140
0 0 0
0 0 0
0 0 0
0 0 0
0 0 0
0 0 0
0 0 0
0 0 0
0 0 0
0 0 0
0 0 0
0 0 0
0 0 0
0 0 0
0 0 0
0 0 0
0 0 0
0 0 0
0 0 0
0 0 0
0 0 0
0 0 0
0 0 0
0 0 0
0 0 0
0 0 0
0 0 0
0 0 0
0 0 0
0 0 0
0 0 0
0 0 0
0 0 0
0 0 0
0 0 0
0 0 0
0 0 0
0 0 0
0 0 0
0 0 0
0 0 0
0 0 0
0 0 0
0 0 0
0 0 0
0 0 0
0 0 0
0 0 0
0 0 0
0 0 0
0 0 0
0 0 0
0 0 0
0 0 0
0 0 0
0 0 0
0 0 0
0 0 0
0 0 0
0 0 0
0 0 0
0 0 0
0 0 0
0 0 0
0 0 0
0 0 0
0 0 0
0 0 0
0 0 0
0 0 0
0 0 0
0 0 0
0 0 0
0 0 0
0 0 0
0 0 0
0 0 0
255 255 255
255 255 255
255 255 255
255 255 255
255 255 255
255 255 255
255 255 255
255 255 255
255 255 255
255 255 255
255 255 255
255 255 255
255 255 255
255 255 255
255 255 255
255 255 255
255 255 255
255 255 255
255 255 255
255 255 255
255 255 255
255 255 255
0 0 0
0 0 0
0 0 0
0 0 0
0 0 0
0 0 0
0 0 0
0 0 0
0 0 0
0 0 0
0 0 0
0 0 0
0 0 0
0 0 0
0 0 0
0 0 0
0 0 0
0 0 0
0 0 0
0 0 0
0 0 0
0 0 0
0 0 0
0 0 0
0 0 0
0 0 0
0 0 0
0 0 0
0 0 0
0 0 0
0 0 0
0 0 0
0 0 0
0 0 0
0 0 0
0 0 0
0 0 0
0 0 0
0 0 0
0 0 0
0 0 0
0 0 0
0 0 0
0 0 0
0 0 0
0 0 0
0 0 0
0 0 0
0 0 0
0 0 0
0 0 0
0 0 0
0 0 0
0 0 0
0 0 0
0 0 0
0 0 0
0 0 0
0 0 0
0 0 0
0 0 0
0 0 0
0 0 0
0 0 0
0 0 0
0 0 0
0 0 0
0 0 0
0 0 0
0 0 0
0 0 0
0 0 0
0 0 0
0 0 0
0 0 0
0 0 0
0 0 0
0 0 0
161 161 161
255 255 255
255 255 255
255 255 255
255 255 255
255 255 255
255 255 255
255 255 255
255 255 255
255 255 255
255 255 255
255 255 255
255 255 255
255 255 255
255 255 255
255 255 255
255 255 255
255 255 255
255 255 255
255 255 255
255 255 255
181 181 181
0 0 0
0 0 0
0 0 0
0 0 0
0 0 0
0 0 0
0 0 0
0 0 0
0 0 0
0 0 0
0 0 0
0 0 0
0 0 0
0 0 0
0 0 0
0 0 0
0 0 0
0 0 0
0 0 0
0 0 0
0 0 0
0 0 0
0 0 0
0 0 0
0 0 0
0 0 0
0 0 0
0 0 0
0 0 0
0 0 0
0 0 0
0 0 0
0 0 0
0 0 0
0 0 0
0 0 0
0 0 0
0 0 0
0 0 0
0 0 0
0 0 0
0 0 0
0 0 0
0 0 0
0 0 0
0 0 0
0 0 0
0 0 0
0 0 0
0 0 0
0 0 0
0 0 0
0 0 0
0 0 0
0 0 0
0 0 0
0 0 0
0 0 0
0 0 0
0 0 0
0 0 0
0 0 0
0 0 0
0 0 0
0 0 0
0 0 0
0 0 0
0 0 0
0 0 0
0 0 0
0 0 0
0 0 0
0 0 0
0 0 0
0 0 0
0 0 0
0 0 0
0 0 0
0 0 0
255 255 255
255 255 255
255 255 255
255 255 255
255 255 255
255 255 255
255 255 255
255 255 255
255 255 255
255 255 255
255 255 255
255 255 255
255 255 255
255 255 255
255 255 255
255 255 255
255 255 255
255 255 255
255 255 255
255 255 255
0 0 0
0 0 0
0 0 0
0 0 0
0 0 0
0 0 0
0 0 0
0 0 0
0 0 0
0 0 0
0 0 0
0 0 0
0 0 0
0 0 0
0 0 0
0 0 0
0 0 0
0 0 0
0 0 0
0 0 0
0 0 0
0 0 0
0 0 0
0 0 0
0 0 0
0 0 0
0 0 0
0 0 0
0 0 0
0 0 0
0 0 0
0 0 0
0 0 0
0 0 0
0 0 0
0 0 0
0 0 0
0 0 0
0 0 0
0 0 0
0 0 0
0 0 0
0 0 0
0 0 0
0 0 0
0 0 0
0 0 0
0 0 0
0 0 0
0 0 0
0 0 0
0 0 0
0 0 0
0 0 0
0 0 0
0 0 0
0 0 0
0 0 0
0 0 0
0 0 0
0 0 0
0 0 0
0 0 0
0 0 0
0 0 0
0 0 0
0 0 0
0 0 0
0 0 0
0 0 0
0 0 0
0 0 0
0 0 0
0 0 0
0 0 0
0 0 0
0 0 0
0 0 0
0 0 0
0 0 0
0 0 0
255 255 255
255 255 255
255 255 255
255 255 255
255 255 255
255 255 255
255 255 255
255 255 255
255 255 255
255 255 255
255 255 255
255 255 255
255 255 255
255 255 255
255 255 255
255 255 255
255 255 255
255 255 255
0 0 0
0 0 0
0 0 0
0 0 0
0 0 0
0 0 0
0 0 0
0 0 0
0 0 0
0 0 0
0 0 0
0 0 0
0 0 0
0 0 0
0 0 0
0 0 0
0 0 0
0 0 0
0 0 0
0 0 0
0 0 0
0 0 0
0 0 0
0 0 0
0 0 0
0 0 0
0 0 0
0 0 0
0 0 0
0 0 0
0 0 0
0 0 0
0 0 0
0 0 0
0 0 0
0 0 0
0 0 0
0 0 0
0 0 0
0 0 0
0 0 0
0 0 0
0 0 0
0 0 0
0 0 0
0 0 0
0 0 0
0 0 0
0 0 0
0 0 0
0 0 0
0 0 0
0 0 0
0 0 0
0 0 0
0 0 0
0 0 0
0 0 0
0 0 0
0 0 0
0 0 0
0 0 0
0 0 0
0 0 0
0 0 0
0 0 0
0 0 0
0 0 0
0 0 0
0 0 0
0 0 0
0 0 0
0 0 0
0 0 0
0 0 0
0 0 0
0 0 0
0 0 0
0 0 0
0 0 0
0 0 0
0 0 0
0 0 0
255 255 255
255 255 255
255 255 255
255 255 255
255 255 255
255 255 255
255 255 255
255 255 255
255 255 255
255 255 255
255 255 255
255 255 255
255 255 255
255 255 255
255 255 255
255 255 255
0 0 0
0 0 0
0 0 0
0 0 0
0 0 0
0 0 0
0 0 0
0 0 0
0 0 0
0 0 0
0 0 0
0 0 0
0 0 0
0 0 0
0 0 0
0 0 0
0 0 0
0 0 0
0 0 0
0 0 0
0 0 0
0 0 0
0 0 0
0 0 0
0 0 0
0 0 0
0 0 0
0 0 0
0 0 0
0 0 0
0 0 0
0 0 0
0 0 0
0 0 0
0 0 0
0 0 0
0 0 0
0 0 0
0 0 0
0 0 0
0 0 0
0 0 0
0 0 0
0 0 0
0 0 0
0 0 0
0 0 0
0 0 0
0 0 0
0 0 0
0 0 0
0 0 0
0 0 0
0 0 0
0 0 0
0 0 0
0 0 0
0 0 0
0 0 0
0 0 0
0 0 0
0 0 0
0 0 0
0 0 0
0 0 0
0 0 0
0 0 0
0 0 0
0 0 0
0 0 0
0 0 0
0 0 0
0 0 0
0 0 0
0 0 0
0 0 0
0 0 0
0 0 0
0 0 0
0 0 0
0 0 0
0 0 0
0 0 0
0 0 0
0 0 0
228 228 228
255 255 255
255 255 255
255 255 255
255 255 255
255 255 255
255 255 255
255 255 255
255 255 255
255 255 255
255 255 255
255 255 255
255 255 255
228 228 228
0 0 0
0 0 0
0 0 0
0 0 0
0 0 0
0 0 0
0 0 0
0 0 0
0 0 0
0 0 0
0 0 0
0 0 0
0 0 0
0 0 0
0 0 0
0 0 0
0 0 0
0 0 0
0 0 0
0 0 0
0 0 0
0 0 0
0 0 0
0 0 0
0 0 0
0 0 0
0 0 0
0 0 0
0 0 0
0 0 0
0 0 0
0 0 0
0 0 0
0 0 0
0 0 0
0 0 0
0 0 0
0 0 0
0 0 0
0 0 0
0 0 0
0 0 0
0 0 0
0 0 0
0 0 0
0 0 0
0 0 0
0 0 0
0 0 0
0 0 0
0 0 0
0 0 0
0 0 0
0 0 0
0 0 0
0 0 0
0 0 0
0 0 0
0 0 0
0 0 0
0 0 0
0 0 0
0 0 0
0 0 0
0 0 0
0 0 0
0 0 0
0 0 0
0 0 0
0 0 0
0 0 0
0 0 0
0 0 0
0 0 0
0 0 0
0 0 0
0 0 0
0 0 0
0 0 0
0 0 0
0 0 0
0 0 0
0 0 0
0 0 0
0 0 0
0 0 0
0 0 0
0 0 0
228 228 228
255 255 255
255 255 255
255 255 255
255 255 255
255 255 255
255 255 255
255 255 255
255 255 255
242 242 242
0 0 0
0 0 0
0 0 0
0 0 0
0 0 0
0 0 0
0 0 0
0 0 0
0 0 0
0 0 0
0 0 0
0 0 0
0 0 0
0 0 0
0 0 0
0 0 0
0 0 0
0 0 0
0 0 0
0 0 0
0 0 0
0 0 0
0 0 0
0 0 0
0 0 0
0 0 0
0 0 0
0 0 0
0 0 0
0 0 0
0 0 0
0 0 0
0 0 0
0 0 0
0 0 0
0 0 0
0 0 0
0 0 0
0 0 0
0 0 0
0 0 0
0 0 0
0 0 0
0 0 0
0 0 0
0 0 0
0 0 0
0 0 0
0 0 0
0 0 0
0 0 0
0 0 0
0 0 0
0 0 0
0 0 0
0 0 0
0 0 0
0 0 0
0 0 0
0 0 0
0 0 0
0 0 0
0 0 0
0 0 0
0 0 0
0 0 0
0 0 0
0 0 0
0 0 0
0 0 0
0 0 0
0 0 0
0 0 0
0 0 0
0 0 0
0 0 0
0 0 0
0 0 0
0 0 0
0 0 0
0 0 0
0 0 0
0 0 0
0 0 0
0 0 0
0 0 0
0 0 0
0 0 0
0 0 0
0 0 0
0 0 0
0 0 0
0 0 0
140 140 140
161 161 161
181 181 181
80 80 80
0 0 0
0 0 0
0 0 0
0 0 0
0 0 0
0 0 0
0 0 0
0 0 0
0 0 0
0 0 0
0 0 0
0 0 0
0 0 0
0 0 0
0 0 0
0 0 0
0 0 0
0 0 0
0 0 0
0 0 0
0 0 0
0 0 0
0 0 0
0 0 0
0 0 0
0 0 0
0 0 0
0 0 0
0 0 0
0 0 0
0 0 0
0 0 0
0 0 0
0 0 0
0 0 0
0 0 0
0 0 0
0 0 0
0 0 0
0 0 0
0 0 0
0 0 0
0 0 0
0 0 0
0 0 0
0 0 0
0 0 0
0 0 0
0 0 0
0 0 0
0 0 0
0 0 0
0 0 0
0 0 0
0 0 0
0 0 0
0 0 0
0 0 0
0 0 0
0 0 0
0 0 0
0 0 0
0 0 0
0 0 0
0 0 0
0 0 0
0 0 0
0 0 0
0 0 0
0 0 0
0 0 0
0 0 0
0 0 0
0 0 0
0 0 0
0 0 0
0 0 0
0 0 0
0 0 0
0 0 0
0 0 0
0 0 0
0 0 0
0 0 0
0 0 0
0 0 0
0 0 0
0 0 0
0 0 0
0 0 0
0 0 0
0 0 0
0 0 0
0 0 0
0 0 0
0 0 0
0 0 0
0 0 0
0 0 0
0 0 0
0 0 0
0 0 0
0 0 0
0 0 0
0 0 0
0 0 0
0 0 0
0 0 0
0 0 0
0 0 0
0 0 0
0 0 0
0 0 0
0 0 0
0 0 0
0 0 0
0 0 0
0 0 0
0 0 0
0 0 0
0 0 0
0 0 0
0 0 0
0 0 0
0 0 0
0 0 0
0 0 0
0 0 0
0 0 0
0 0 0
0 0 0
0 0 0
0 0 0
0 0 0
0 0 0
0 0 0
0 0 0
0 0 0
0 0 0
0 0 0
0 0 0
0 0 0
0 0 0
0 0 0
0 0 0
0 0 0
0 0 0
0 0 0
0 0 0
0 0 0
0 0 0
0 0 0
0 0 0
0 0 0
0 0 0
0 0 0
0 0 0
0 0 0
0 0 0
0 0 0
0 0 0
0 0 0
0 0 0
0 0 0
0 0 0
0 0 0
0 0 0
0 0 0
0 0 0
0 0 0
0 0 0
0 0 0
0 0 0
0 0 0
0 0 0
0 0 0
0 0 0
0 0 0
0 0 0
0 0 0
0 0 0
0 0 0
0 0 0
0 0 0
0 0 0
0 0 0
0 0 0
0 0 0
0 0 0
0 0 0
0 0 0
0 0 0
0 0 0
0 0 0
0 0 0
0 0 0
0 0 0
0 0 0
0 0 0
0 0 0
0 0 0
0 0 0
0 0 0
0 0 0
0 0 0
0 0 0
0 0 0
0 0 0
0 0 0
0 0 0
0 0 0
0 0 0
0 0 0
0 0 0
0 0 0
0 0 0
0 0 0
0 0 0
0 0 0
0 0 0
0 0 0
0 0 0
0 0 0
0 0 0
0 0 0
0 0 0
0 0 0
0 0 0
0 0 0
0 0 0
0 0 0
0 0 0
0 0 0
0 0 0
0 0 0
0 0 0
0 0 0
0 0 0
0 0 0
0 0 0
0 0 0
0 0 0
0 0 0
0 0 0
0 0 0
0 0 0
0 0 0
0 0 0
0 0 0
0 0 0
0 0 0
0 0 0
0 0 0
0 0 0
0 0 0
0 0 0
0 0 0
0 0 0
0 0 0
0 0 0
0 0 0
0 0 0
0 0 0
0 0 0
0 0 0
0 0 0
0 0 0
0 0 0
0 0 0
0 0 0
0 0 0
0 0 0
0 0 0
0 0 0
0 0 0
0 0 0
0 0 0
0 0 0
0 0 0
0 0 0
0 0 0
0 0 0
0 0 0
0 0 0
0 0 0
0 0 0
0 0 0
0 0 0
0 0 0
0 0 0
0 0 0
0 0 0
0 0 0
0 0 0
0 0 0
0 0 0
0 0 0
0 0 0
0 0 0
0 0 0
0 0 0
0 0 0
0 0 0
0 0 0
0 0 0
0 0 0
0 0 0
0 0 0
0 0 0
0 0 0
0 0 0
0 0 0
0 0 0
0 0 0
0 0 0
0 0 0
0 0 0
0 0 0
0 0 0
0 0 0
0 0 0
0 0 0
0 0 0
0 0 0
0 0 0
0 0 0
0 0 0
0 0 0
0 0 0
0 0 0
0 0 0
0 0 0
0 0 0
0 0 0
0 0 0
0 0 0
0 0 0
0 0 0
0 0 0
0 0 0
0 0 0
0 0 0
0 0 0
0 0 0
0 0 0
0 0 0
0 0 0
0 0 0
0 0 0
0 0 0
0 0 0
0 0 0
0 0 0
0 0 0
0 0 0
0 0 0
0 0 0
0 0 0
0 0 0
0 0 0
0 0 0
0 0 0
0 0 0
0 0 0
0 0 0
0 0 0
0 0 0
0 0 0
0 0 0
0 0 0
0 0 0
0 0 0
0 0 0
0 0 0
0 0 0
0 0 0
0 0 0
0 0 0
0 0 0
0 0 0
0 0 0
0 0 0
0 0 0
0 0 0
0 0 0
0 0 0
0 0 0
0 0 0
0 0 0
0 0 0
0 0 0
0 0 0
0 0 0
0 0 0
0 0 0
0 0 0
0 0 0
0 0 0
0 0 0
0 0 0
0 0 0
0 0 0
0 0 0
0 0 0
0 0 0
0 0 0
0 0 0
0 0 0
0 0 0
0 0 0
0 0 0
0 0 0
0 0 0
0 0 0
0 0 0
0 0 0
0 0 0
0 0 0
0 0 0
0 0 0
0 0 0
0 0 0
0 0 0
0 0 0
0 0 0
0 0 0
0 0 0
0 0 0
0 0 0
0 0 0
0 0 0
0 0 0
0 0 0
0 0 0
0 0 0
0 0 0
0 0 0
0 0 0
0 0 0
0 0 0
0 0 0
0 0 0
0 0 0
0 0 0
0 0 0
0 0 0
0 0 0
0 0 0
0 0 0
0 0 0
0 0 0
0 0 0
0 0 0
0 0 0
0 0 0
0 0 0
0 0 0
0 0 0
0 0 0
0 0 0
0 0 0
0 0 0
0 0 0
0 0 0
0 0 0
0 0 0
0 0 0
0 0 0
0 0 0
0 0 0
0 0 0
0 0 0
0 0 0
0 0 0
0 0 0
0 0 0
0 0 0
0 0 0
0 0 0
0 0 0
0 0 0
0 0 0
0 0 0
0 0 0
0 0 0
0 0 0
0 0 0
0 0 0
0 0 0
0 0 0
0 0 0
0 0 0
0 0 0
0 0 0
0 0 0
0 0 0
0 0 0
0 0 0
0 0 0
0 0 0
0 0 0
0 0 0
0 0 0
0 0 0
0 0 0
0 0 0
0 0 0
0 0 0
0 0 0
0 0 0
0 0 0
0 0 0
0 0 0
0 0 0
0 0 0
0 0 0
0 0 0
0 0 0
0 0 0
0 0 0
0 0 0
0 0 0
0 0 0
0 0 0
0 0 0
0 0 0
0 0 0
0 0 0
0 0 0
0 0 0
0 0 0
0 0 0
0 0 0
0 0 0
0 0 0
0 0 0
0 0 0
0 0 0
0 0 0
0 0 0
0 0 0
0 0 0
0 0 0
0 0 0
0 0 0
0 0 0
0 0 0
0 0 0
0 0 0
0 0 0
0 0 0
0 0 0
0 0 0
0 0 0
0 0 0
0 0 0
0 0 0
0 0 0
0 0 0
0 0 0
0 0 0
0 0 0
0 0 0
0 0 0
0 0 0
0 0 0
0 0 0
0 0 0
0 0 0
0 0 0
0 0 0
0 0 0
0 0 0
0 0 0
0 0 0
0 0 0
0 0 0
0 0 0
0 0 0
0 0 0
0 0 0
0 0 0
0 0 0
0 0 0
0 0 0
0 0 0
0 0 0
0 0 0
0 0 0
0 0 0
0 0 0
0 0 0
0 0 0
25 36 57
67 95 151
67 95 151
80 114 181
102 144 228
105 149 236
72 102 161
72 102 161
51 72 114
25 36 57
0 0 0
0 0 0
0 0 0
0 0 0
0 0 0
0 0 0
0 0 0
0 0 0
0 0 0
0 0 0
0 0 0
0 0 0
0 0 0
0 0 0
0 0 0
0 0 0
0 0 0
0 0 0
0 0 0
0 0 0
0 0 0
0 0 0
0 0 0
0 0 0
0 0 0
0 0 0
0 0 0
0 0 0
0 0 0
0 0 0
0 0 0
0 0 0
0 0 0
0 0 0
0 0 0
0 0 0
0 0 0
0 0 0
0 0 0
0 0 0
0 0 0
0 0 0
0 0 0
0 0 0
0 0 0
0 0 0
0 0 0
0 0 0
0 0 0
0 0 0
0 0 0
0 0 0
0 0 0
0 0 0
0 0 0
0 0 0
0 0 0
0 0 0
0 0 0
0 0 0
0 0 0
0 0 0
0 0 0
0 0 0
0 0 0
0 0 0
0 0 0
0 0 0
0 0 0
0 0 0
0 0 0
0 0 0
0 0 0
0 0 0
0 0 0
0 0 0
0 0 0
0 0 0
0 0 0
0 0 0
0 0 0
0 0 0
0 0 0
0 0 0
0 0 0
0 0 0
0 0 0
0 0 0
0 0 0
62 88 140
62 88 140
84 120 189
72 102 161
80 114 181
72 102 161
67 95 151
80 114 181
72 102 161
72 102 161
92 130 206
0 0 0
0 0 0
0 0 0
0 0 0
0 0 0
0 0 0
0 0 0
0 0 0
0 0 0
0 0 0
0 0 0
0 0 0
0 0 0
0 0 0
0 0 0
0 0 0
0 0 0
0 0 0
0 0 0
0 0 0
0 0 0
0 0 0
0 0 0
0 0 0
0 0 0
0 0 0
0 0 0
0 0 0
0 0 0
0 0 0
0 0 0
0 0 0
0 0 0
0 0 0
0 0 0
0 0 0
0 0 0
0 0 0
0 0 0
0 0 0
0 0 0
0 0 0
0 0 0
0 0 0
0 0 0
0 0 0
0 0 0
0 0 0
0 0 0
0 0 0
0 0 0
0 0 0
0 0 0
0 0 0
0 0 0
0 0 0
0 0 0
0 0 0
0 0 0
0 0 0
0 0 0
0 0 0
0 0 0
0 0 0
0 0 0
0 0 0
0 0 0
0 0 0
0 0 0
0 0 0
0 0 0
0 0 0
0 0 0
0 0 0
0 0 0
0 0 0
0 0 0
0 0 0
0 0 0
0 0 0
0 0 0
0 0 0
0 0 0
0 0 0
0 0 0
0 0 0
0 0 0
36 51 80
57 80 128
51 72 114
57 80 128
72 102 161
57 80 128
36 51 80
67 95 151
57 80 128
72 102 161
62 88 140
62 88 140
72 102 161
51 72 114
51 72 114
0 0 0
0 0 0
0 0 0
0 0 0
0 0 0
0 0 0
0 0 0
0 0 0
0 0 0
0 0 0
0 0 0
0 0 0
0 0 0
0 0 0
0 0 0
0 0 0
0 0 0
0 0 0
0 0 0
0 0 0
0 0 0
0 0 0
0 0 0
0 0 0
0 0 0
0 0 0
0 0 0
0 0 0
0 0 0
0 0 0
0 0 0
0 0 0
0 0 0
0 0 0
0 0 0
0 0 0
0 0 0
0 0 0
0 0 0
0 0 0
0 0 0
0 0 0
0 0 0
0 0 0
0 0 0
0 0 0
0 0 0
0 0 0
0 0 0
0 0 0
0 0 0
0 0 0
0 0 0
0 0 0
0 0 0
0 0 0
0 0 0
0 0 0
0 0 0
0 0 0
0 0 0
0 0 0
0 0 0
0 0 0
0 0 0
0 0 0
0 0 0
0 0 0
0 0 0
0 0 0
0 0 0
0 0 0
0 0 0
0 0 0
0 0 0
0 0 0
0 0 0
0 0 0
0 0 0
0 0 0
0 0 0
0 0 0
0 0 0
0 0 0
25 36 57
44 62 99
44 62 99
44 62 99
62 88 140
67 95 151
51 72 114
51 72 114
62 88 140
67 96 154
51 72 114
36 51 80
44 62 99
45 64 107
57 80 128
57 80 128
62 88 140
44 62 99
0 0 0
0 0 0
0 0 0
0 0 0
0 0 0
0 0 0
0 0 0
0 0 0
0 0 0
0 0 0
0 0 0
0 0 0
0 0 0
0 0 0
0 0 0
0 0 0
0 0 0
0 0 0
0 0 0
0 0 0
0 0 0
0 0 0
0 0 0
0 0 0
0 0 0
0 0 0
0 0 0
0 0 0
0 0 0
0 0 0
0 0 0
0 0 0
0 0 0
0 0 0
0 0 0
0 0 0
0 0 0
0 0 0
0 0 0
0 0 0
0 0 0
0 0 0
0 0 0
0 0 0
0 0 0
0 0 0
0 0 0
0 0 0
0 0 0
0 0 0
0 0 0
0 0 0
0 0 0
0 0 0
0 0 0
0 0 0
0 0 0
0 0 0
0 0 0
0 0 0
0 0 0
0 0 0
0 0 0
0 0 0
0 0 0
0 0 0
0 0 0
0 0 0
0 0 0
0 0 0
0 0 0
0 0 0
0 0 0
0 0 0
0 0 0
0 0 0
0 0 0
0 0 0
0 0 0
0 0 0
0 0 0
0 0 0
44 62 99
51 72 114
44 62 99
36 51 80
44 62 99
44 62 99
44 62 99
51 72 114
25 36 57
36 51 80
44 62 99
25 36 57
36 51 80
36 51 80
44 62 99
67 95 151
36 51 80
37 53 90
25 36 57
0 0 0
0 0 0
0 0 0
0 0 0
0 0 0
0 0 0
0 0 0
0 0 0
0 0 0
0 0 0
0 0 0
0 0 0
0 0 0
0 0 0
0 0 0
0 0 0
0 0 0
0 0 0
0 0 0
0 0 0
0 0 0
0 0 0
0 0 0
0 0 0
0 0 0
0 0 0
0 0 0
0 0 0
0 0 0
0 0 0
0 0 0
0 0 0
0 0 0
0 0 0
0 0 0
0 0 0
0 0 0
0 0 0
0 0 0
0 0 0
0 0 0
0 0 0
0 0 0
0 0 0
0 0 0
0 0 0
0 0 0
0 0 0
0 0 0
0 0 0
0 0 0
0 0 0
0 0 0
0 0 0
0 0 0
0 0 0
0 0 0
0 0 0
0 0 0
0 0 0
0 0 0
0 0 0
0 0 0
0 0 0
0 0 0
0 0 0
0 0 0
0 0 0
0 0 0
0 0 0
0 0 0
0 0 0
0 0 0
0 0 0
0 0 0
0 0 0
0 0 0
0 0 0
0 0 0
0 0 0
25 36 57
36 51 80
57 80 128
36 51 80
44 62 99
51 72 114
25 36 57
44 62 99
25 36 57
44 62 99
25 36 57
25 36 57
0 0 0
57 80 128
36 51 80
44 62 99
51 72 114
44 62 99
25 36 57
44 62 99
0 0 0
0 0 0
0 0 0
0 0 0
0 0 0
0 0 0
0 0 0
0 0 0
0 0 0
0 0 0
0 0 0
0 0 0
0 0 0
0 0 0
0 0 0
0 0 0
0 0 0
0 0 0
0 0 0
0 0 0
0 0 0
0 0 0
0 0 0
0 0 0
0 0 0
0 0 0
0 0 0
0 0 0
0 0 0
0 0 0
0 0 0
0 0 0
0 0 0
0 0 0
0 0 0
0 0 0
0 0 0
0 0 0
0 0 0
0 0 0
0 0 0
0 0 0
0 0 0
0 0 0
0 0 0
0 0 0
0 0 0
0 0 0
0 0 0
0 0 0
0 0 0
0 0 0
0 0 0
0 0 0
0 0 0
0 0 0
0 0 0
0 0 0
0 0 0
0 0 0
0 0 0
0 0 0
0 0 0
0 0 0
0 0 0
0 0 0
0 0 0
0 0 0
0 0 0
0 0 0
0 0 0
0 0 0
0 0 0
0 0 0
0 0 0
0 0 0
0 0 0
0 0 0
0 0 0
25 36 57
44 62 99
25 36 57
0 0 0
36 51 80
0 0 0
25 36 57
37 53 90
36 51 80
36 51 80
26 39 70
36 51 80
36 51 80
44 62 99
36 51 80
44 62 99
57 80 128
57 82 134
25 36 57
51 72 114
25 36 57
0 0 0
0 0 0
0 0 0
0 0 0
0 0 0
0 0 0
0 0 0
255 255 255
255 255 255
255 255 255
255 255 255
255 255 255
0 0 0
0 0 0
0 0 0
0 0 0
0 0 0
0 0 0
0 0 0
0 0 0
0 0 0
0 0 0
0 0 0
0 0 0
0 0 0
0 0 0
0 0 0
0 0 0
0 0 0
0 0 0
0 0 0
0 0 0
0 0 0
0 0 0
0 0 0
0 0 0
0 0 0
0 0 0
0 0 0
0 0 0
0 0 0
0 0 0
0 0 0
0 0 0
0 0 0
0 0 0
0 0 0
0 0 0
0 0 0
0 0 0
0 0 0
0 0 0
0 0 0
0 0 0
0 0 0
0 0 0
0 0 0
0 0 0
0 0 0
0 0 0
0 0 0
0 0 0
0 0 0
0 0 0
0 0 0
0 0 0
0 0 0
0 0 0
0 0 0
0 0 0
0 0 0
0 0 0
0 0 0
0 0 0
0 0 0
0 0 0
0 0 0
0 0 0
0 0 0
25 36 57
25 36 57
0 0 0
25 36 57
25 36 57
0 0 0
25 36 57
25 36 57
25 36 57
26 39 70
0 0 0
36 51 80
36 51 80
44 62 99
44 62 99
51 72 114
57 80 128
37 53 92
26 39 70
44 62 99
44 62 99
28 42 80
0 0 0
0 0 0
0 0 0
0 0 0
0 0 0
0 0 0
255 255 255
255 255 255
255 255 255
255 255 255
255 255 255
0 0 0
0 0 0
0 0 0
0 0 0
0 0 0
0 0 0
0 0 0
0 0 0
0 0 0
0 0 0
0 0 0
0 0 0
0 0 0
0 0 0
0 0 0
0 0 0
0 0 0
0 0 0
0 0 0
0 0 0
0 0 0
0 0 0
0 0 0
0 0 0
0 0 0
0 0 0
0 0 0
0 0 0
0 0 0
0 0 0
0 0 0
0 0 0
0 0 0
0 0 0
0 0 0
0 0 0
0 0 0
0 0 0
0 0 0
0 0 0
0 0 0
0 0 0
0 0 0
0 0 0
0 0 0
0 0 0
0 0 0
0 0 0
0 0 0
0 0 0
0 0 0
0 0 0
0 0 0
0 0 0
0 0 0
0 0 0
0 0 0
0 0 0
0 0 0
0 0 0
0 0 0
0 0 0
0 0 0
0 0 0
0 0 0
0 0 0
0 0 0
0 0 0
25 36 57
0 0 0
0 0 0
26 39 70
0 0 0
0 0 0
28 42 80
36 51 80
8 16 40
25 36 57
26 39 70
36 51 80
51 74 121
37 53 90
28 42 80
37 53 90
51 74 121
44 62 99
28 42 80
36 51 80
8 16 40
0 0 0
0 0 0
0 0 0
0 0 0
0 0 0
0 0 0
255 255 255
255 255 255
255 255 255
255 255 255
255 255 255
0 0 0
0 0 0
0 0 0
0 0 0
0 0 0
0 0 0
0 0 0
0 0 0
0 0 0
0 0 0
0 0 0
0 0 0
0 0 0
0 0 0
0 0 0
0 0 0
0 0 0
0 0 0
0 0 0
0 0 0
0 0 0
0 0 0
0 0 0
0 0 0
0 0 0
0 0 0
0 0 0
0 0 0
0 0 0
0 0 0
0 0 0
0 0 0
0 0 0
0 0 0
0 0 0
0 0 0
0 0 0
0 0 0
0 0 0
0 0 0
0 0 0
0 0 0
0 0 0
0 0 0
0 0 0
0 0 0
0 0 0
0 0 0
0 0 0
0 0 0
0 0 0
0 0 0
0 0 0
0 0 0
0 0 0
0 0 0
0 0 0
0 0 0
0 0 0
0 0 0
0 0 0
0 0 0
0 0 0
0 0 0
0 0 0
0 0 0
0 0 0
0 0 0
25 36 57
8 16 40
0 0 0
8 16 40
0 0 0
26 39 70
45 66 114
25 36 57
26 39 70
36 51 80
0 0 0
51 72 114
37 53 90
44 62 99
57 80 128
62 88 140
62 88 140
36 51 80
26 39 70
26 39 70
0 0 0
25 36 57
0 0 0
0 0 0
0 0 0
0 0 0
0 0 0
255 255 255
255 255 255
255 255 255
255 255 255
255 255 255
0 0 0
0 0 0
0 0 0
0 0 0
0 0 0
0 0 0
0 0 0
0 0 0
0 0 0
0 0 0
0 0 0
0 0 0
0 0 0
0 0 0
0 0 0
0 0 0
0 0 0
0 0 0
0 0 0
0 0 0
0 0 0
0 0 0
0 0 0
0 0 0
0 0 0
0 0 0
0 0 0
0 0 0
0 0 0
0 0 0
0 0 0
0 0 0
0 0 0
0 0 0
0 0 0
0 0 0
0 0 0
0 0 0
0 0 0
0 0 0
0 0 0
0 0 0
0 0 0
0 0 0
0 0 0
0 0 0
0 0 0
0 0 0
0 0 0
0 0 0
0 0 0
0 0 0
0 0 0
0 0 0
0 0 0
0 0 0
0 0 0
0 0 0
0 0 0
0 0 0
0 0 0
0 0 0
0 0 0
0 0 0
0 0 0
0 0 0
0 0 0
0 0 0
0 0 0
8 16 40
0 0 0
8 16 40
8 16 40
8 16 40
0 0 0
0 0 0
36 51 80
36 51 80
25 36 57
36 51 80
45 64 107
51 72 114
37 53 90
8 16 40
62 88 140
37 53 90
36 51 80
36 51 80
26 39 70
26 39 70
0 0 0
0 0 0
0 0 0
0 0 0
0 0 0
255 255 255
255 255 255
255 255 255
255 255 255
255 255 255
0 0 0
0 0 0
0 0 0
0 0 0
0 0 0
0 0 0
0 0 0
0 0 0
0 0 0
0 0 0
0 0 0
0 0 0
0 0 0
0 0 0
0 0 0
0 0 0
0 0 0
0 0 0
0 0 0
0 0 0
0 0 0
0 0 0
0 0 0
0 0 0
0 0 0
0 0 0
0 0 0
0 0 0
0 0 0
0 0 0
0 0 0
0 0 0
0 0 0
0 0 0
0 0 0
0 0 0
0 0 0
0 0 0
0 0 0
0 0 0
0 0 0
0 0 0
0 0 0
0 0 0
0 0 0
0 0 0
0 0 0
0 0 0
0 0 0
0 0 0
0 0 0
0 0 0
0 0 0
0 0 0
0 0 0
0 0 0
0 0 0
0 0 0
0 0 0
0 0 0
0 0 0
0 0 0
0 0 0
0 0 0
0 0 0
0 0 0
0 0 0
0 0 0
8 16 40
0 0 0
0 0 0
0 0 0
25 36 57
0 0 0
0 0 0
8 16 40
36 51 80
37 53 90
51 72 114
37 53 90
45 66 114
51 72 114
63 90 145
57 82 134
45 64 107
51 72 114
57 80 128
72 102 161
36 51 80
26 39 70
0 0 0
0 0 0
0 0 0
0 0 0
0 0 0
255 255 255
255 255 255
255 255 255
255 255 255
255 255 255
0 0 0
0 0 0
0 0 0
0 0 0
0 0 0
0 0 0
0 0 0
0 0 0
0 0 0
0 0 0
0 0 0
0 0 0
0 0 0
0 0 0
0 0 0
0 0 0
0 0 0
0 0 0
0 0 0
0 0 0
0 0 0
0 0 0
0 0 0
0 0 0
0 0 0
0 0 0
0 0 0
0 0 0
0 0 0
0 0 0
0 0 0
0 0 0
0 0 0
0 0 0
0 0 0
0 0 0
0 0 0
0 0 0
0 0 0
0 0 0
0 0 0
0 0 0
0 0 0
0 0 0
0 0 0
0 0 0
0 0 0
0 0 0
0 0 0
0 0 0
0 0 0
0 0 0
0 0 0
0 0 0
0 0 0
0 0 0
0 0 0
0 0 0
0 0 0
0 0 0
0 0 0
0 0 0
0 0 0
0 0 0
0 0 0
0 0 0
0 0 0
0 0 0
8 16 40
0 0 0
8 16 40
0 0 0
8 16 40
8 16 40
8 16 40
0 0 0
25 36 63
28 42 80
8 16 40
25 36 57
37 53 90
8 16 40
58 85 145
26 40 75
51 74 121
51 72 114
52 75 128
51 74 121
26 39 70
26 39 70
0 0 0
0 0 0
0 0 0
0 0 0
0 0 0
255 255 255
255 255 255
255 255 255
255 255 255
255 255 255
0 0 0
0 0 0
0 0 0
0 0 0
0 0 0
0 0 0
0 0 0
0 0 0
0 0 0
0 0 0
0 0 0
0 0 0
0 0 0
0 0 0
0 0 0
0 0 0
0 0 0
0 0 0
0 0 0
0 0 0
0 0 0
0 0 0
0 0 0
0 0 0
0 0 0
0 0 0
0 0 0
0 0 0
0 0 0
0 0 0
0 0 0
0 0 0
0 0 0
0 0 0
0 0 0
0 0 0
0 0 0
0 0 0
0 0 0
0 0 0
0 0 0
0 0 0
0 0 0
0 0 0
0 0 0
0 0 0
0 0 0
0 0 0
0 0 0
0 0 0
0 0 0
0 0 0
0 0 0
0 0 0
0 0 0
0 0 0
0 0 0
0 0 0
0 0 0
0 0 0
0 0 0
0 0 0
0 0 0
0 0 0
0 0 0
0 0 0
11 22 57
11 22 57
0 3 20
8 16 40
0 0 0
0 0 0
8 16 40
0 0 0
8 16 40
0 0 0
8 16 40
16 32 80
25 36 57
25 36 57
26 39 70
26 39 70
36 51 80
58 84 140
2 7 35
58 84 140
45 66 114
45 66 114
8 17 49
0 3 22
0 0 0
0 0 0
0 0 0
0 0 0
0 0 0
255 255 255
255 255 255
255 255 255
255 255 255
255 255 255
0 0 0
0 0 0
0 0 0
0 0 0
0 0 0
0 0 0
0 0 0
0 0 0
0 0 0
0 0 0
0 0 0
0 0 0
0 0 0
0 0 0
0 0 0
0 0 0
0 0 0
0 0 0
0 0 0
0 0 0
0 0 0
0 0 0
0 0 0
0 0 0
0 0 0
0 0 0
0 0 0
0 0 0
0 0 0
0 0 0
0 0 0
0 0 0
0 0 0
0 0 0
0 0 0
0 0 0
0 0 0
0 0 0
0 0 0
0 0 0
0 0 0
0 0 0
0 0 0
0 0 0
0 0 0
0 0 0
0 0 0
0 0 0
0 0 0
0 0 0
0 0 0
0 0 0
0 0 0
0 0 0
0 0 0
0 0 0
0 0 0
0 0 0
0 0 0
0 0 0
0 0 0
0 0 0
0 0 0
0 0 0
0 0 0
0 0 0
0 0 0
0 0 0
8 16 40
0 0 10
0 0 0
0 0 0
2 7 28
0 0 0
26 39 70
25 36 57
0 0 0
25 36 57
28 42 80
37 53 90
44 62 99
58 85 145
37 53 90
45 66 114
58 85 145
44 62 99
45 66 114
37 53 90
11 22 57
0 0 0
0 0 0
0 0 0
0 0 0
0 0 0
0 0 0
255 255 255
255 255 255
255 255 255
255 255 255
255 255 255
0 0 0
0 0 0
0 0 0
0 0 0
0 0 0
0 0 0
0 0 0
0 0 0
0 0 0
0 0 0
0 0 0
0 0 0
0 0 0
0 0 0
0 0 0
0 0 0
0 0 0
0 0 0
0 0 0
0 0 0
0 0 0
0 0 0
0 0 0
0 0 0
0 0 0
0 0 0
0 0 0
0 0 0
0 0 0
0 0 0
0 0 0
0 0 0
0 0 0
0 0 0
0 0 0
0 0 0
0 0 0
0 0 0
0 0 0
0 0 0
0 0 0
0 0 0
0 0 0
0 0 0
0 0 0
0 0 0
0 0 0
0 0 0
0 0 0
0 0 0
0 0 0
0 0 0
0 0 0
0 0 0
0 0 0
0 0 0
0 0 0
0 0 0
0 0 0
0 0 0
0 0 0
0 0 0
0 0 0
0 0 0
0 0 0
0 0 0
8 16 40
0 0 0
0 0 0
0 0 0
11 22 57
11 23 60
11 22 57
0 0 0
0 0 0
8 16 40
11 22 57
11 22 57
8 16 40
51 72 114
46 68 121
37 56 99
37 53 90
51 74 121
45 66 114
25 36 64
26 39 70
8 16 40
26 39 70
0 0 0
0 0 0
0 0 0
0 0 0
0 0 0
0 0 0
255 255 255
255 255 255
255 255 255
255 255 255
255 255 255
0 0 0
0 0 0
0 0 0
0 0 0
0 0 0
0 0 0
0 0 0
0 0 0
0 0 0
0 0 0
0 0 0
0 0 0
0 0 0
0 0 0
0 0 0
0 0 0
0 0 0
0 0 0
0 0 0
0 0 0
0 0 0
0 0 0
0 0 0
0 0 0
0 0 0
0 0 0
0 0 0
0 0 0
0 0 0
0 0 0
0 0 0
0 0 0
0 0 0
0 0 0
0 0 0
0 0 0
0 0 0
0 0 0
0 0 0
0 0 0
0 0 0
0 0 0
0 0 0
0 0 0
0 0 0
0 0 0
0 0 0
0 0 0
0 0 0
0 0 0
0 0 0
0 0 0
0 0 0
0 0 0
0 0 0
0 0 0
0 0 0
0 0 0
0 0 0
0 0 0
0 0 0
0 0 0
0 0 0
0 0 0
0 0 0
0 0 0
0 0 0
14 28 70
0 0 0
0 0 0
0 0 0
8 16 40
8 16 40
0 0 0
11 22 57
8 16 40
0 0 0
11 22 57
0 0 0
37 53 90
29 45 90
29 45 90
30 48 99
63 90 145
45 67 118
29 45 90
44 62 99
11 24 64
0 0 0
25 36 57
0 0 0
0 0 0
0 0 0
0 0 0
0 0 0
255 255 255
255 255 255
255 255 255
255 255 255
255 255 255
0 0 0
0 0 0
0 0 0
0 0 0
0 0 0
0 0 0
0 0 0
0 0 0
0 0 0
0 0 0
0 0 0
0 0 0
0 0 0
0 0 0
0 0 0
0 0 0
0 0 0
25 36 57
0 0 0
0 0 0
0 0 0
0 0 0
0 0 0
0 0 0
0 0 0
25 36 57
0 0 0
0 0 0
0 0 0
25 36 57
0 0 0
8 16 40
0 0 0
0 0 0
0 0 0
0 0 0
0 0 0
0 0 0
0 0 0
0 0 0
0 0 0
0 0 0
0 0 0
0 0 0
0 0 0
0 0 0
0 0 0
0 0 0
0 0 0
0 0 0
0 0 0
0 0 0
0 0 0
25 36 57
0 0 0
0 0 0
0 0 0
0 0 0
0 0 0
0 0 0
0 0 0
0 0 0
0 0 0
0 0 0
25 36 57
0 0 0
0 0 0
14 28 70
8 16 40
0 0 0
0 0 0
0 0 0
8 16 40
11 22 57
0 0 0
37 56 99
11 22 57
8 16 40
38 58 107
38 58 107
37 54 94
44 62 99
46 68 122
52 75 128
46 68 123
26 39 70
45 64 107
11 22 57
8 16 40
0 0 0
0 0 0
25 36 57
0 0 0
25 36 57
0 0 0
255 255 255
255 255 255
255 255 255
255 255 255
255 255 255
25 36 57
0 0 0
0 0 0
0 0 0
0 0 0
0 0 0
0 0 0
0 0 0
0 0 0
0 0 0
0 0 0
0 0 0
0 0 0
0 0 0
0 0 0
0 0 0
0 0 0
0 0 0
0 0 0
0 0 0
0 0 0
0 0 0
25 36 57
0 0 0
0 0 0
0 0 0
0 0 0
0 0 0
0 0 0
0 0 0
0 0 0
0 0 0
25 36 57
0 0 0
25 36 57
0 0 0
0 0 0
0 0 0
0 0 0
25 36 57
0 0 0
0 0 0
25 36 57
0 0 0
25 36 57
25 36 57
0 0 0
0 0 0
0 0 0
0 0 0
0 0 0
25 36 57
0 0 0
0 0 0
25 36 57
0 0 0
0 0 0
0 0 0
25 36 57
0 0 0
0 0 0
0 0 0
0 0 0
0 0 0
25 36 57
36 51 80
0 0 0
0 0 0
0 0 0
8 16 40
8 16 40
8 16 40
8 16 40
8 16 45
11 22 57
8 16 40
8 16 40
8 16 40
11 22 57
37 53 90
37 53 90
25 36 57
37 53 90
29 45 90
38 56 103
28 42 80
29 45 90
8 16 40
0 0 0
0 0 0
0 0 0
0 0 0
0 0 0
0 0 0
0 0 0
255 255 255
255 255 255
255 255 255
255 255 255
255 255 255
25 36 57
0 0 0
0 0 0
25 36 57
25 36 57
36 51 80
0 0 0
0 0 0
0 0 0
0 0 0
0 0 0
0 0 0
0 0 0
0 0 0
0 0 0
0 0 0
0 0 0
0 0 0
0 0 0
25 36 57
0 0 0
0 0 0
0 0 0
0 0 0
0 0 0
0 0 0
0 0 0
0 0 0
36 51 80
0 0 0
0 0 0
0 0 0
0 0 0
0 0 0
0 0 0
0 0 0
0 0 0
0 0 0
0 0 0
0 0 0
0 0 0
0 0 0
25 36 57
0 0 0
0 0 0
0 0 0
25 36 57
25 36 57
36 51 80
0 0 0
36 51 80
36 51 80
25 36 57
25 36 57
0 0 0
0 0 0
0 0 0
0 0 0
0 0 0
0 0 0
0 0 0
25 36 57
0 0 0
0 0 0
0 0 0
36 51 80
25 36 57
26 39 70
0 0 0
0 0 0
0 0 0
0 0 0
8 16 40
8 16 40
14 28 75
11 23 60
26 39 70
28 42 83
28 42 80
36 51 80
26 39 70
51 74 121
0 0 0
52 75 128
11 22 57
25 36 57
45 67 118
0 0 0
0 0 0
25 36 57
25 36 57
0 0 0
0 0 0
0 0 0
26 39 70
214 214 214
255 255 255
255 255 255
255 255 255
255 255 255
25 36 57
0 0 0
0 0 0
0 0 0
8 16 40
0 0 0
0 0 0
25 36 57
36 51 80
0 0 0
0 0 0
0 0 0
0 0 0
25 36 57
25 36 57
0 0 0
0 0 0
25 36 57
0 0 0
0 0 0
0 0 0
0 0 0
0 0 0
0 0 0
36 51 80
25 36 57
0 0 0
0 0 0
44 62 99
0 0 0
0 0 0
25 36 57
0 0 0
0 0 0
0 0 0
25 36 57
25 36 57
0 0 0
0 0 0
25 36 57
0 0 0
25 36 57
0 0 0
25 36 57
0 0 0
0 0 0
0 0 0
25 36 57
25 36 57
44 62 99
0 0 0
25 36 57
25 36 57
25 36 57
0 0 0
25 36 57
36 51 80
36 51 80
0 0 0
25 36 57
36 51 80
25 36 57
0 0 0
25 36 57
36 51 80
25 36 57
25 36 57
25 36 57
0 0 0
44 62 99
0 0 0
0 0 2
8 16 40
8 16 45
11 22 57
8 16 40
11 22 57
11 22 57
28 42 80
8 16 40
14 28 72
11 23 61
26 39 70
11 22 57
8 16 40
8 16 40
25 36 57
36 51 80
0 0 0
62 88 140
0 0 0
36 51 80
0 0 0
36 51 80
25 36 57
25 36 57
25 36 57
0 0 0
44 62 99
198 198 198
0 0 0
0 0 0
25 36 57
0 0 0
25 36 57
0 0 0
57 80 128
0 0 0
25 36 57
0 0 0
0 0 0
0 0 0
25 36 57
0 0 0
0 0 0
0 0 0
0 0 0
0 0 0
25 36 57
0 0 0
44 62 99
0 0 0
0 0 0
0 0 0
0 0 0
0 0 0
0 0 0
0 0 0
0 0 0
25 36 57
0 0 0
0 0 0
0 0 0
0 0 0
36 51 80
0 0 0
36 51 80
25 36 57
0 0 0
0 0 0
0 0 0
25 36 57
36 51 80
0 0 0
36 51 80
0 0 0
36 51 80
25 36 57
36 51 80
0 0 0
0 0 0
25 36 57
25 36 57
25 36 57
36 51 80
0 0 0
0 0 0
36 51 80
25 36 57
0 0 0
0 0 0
25 36 57
0 0 0
25 36 57
25 36 57
25 36 57
57 80 128
25 36 57
25 36 57
44 62 99
0 0 0
25 36 57
0 3 20
8 16 40
8 16 40
8 16 47
0 0 0
8 16 45
8 17 49
11 22 57
28 42 80
0 0 0
8 16 42
8 16 45
8 16 49
25 36 57
0 0 0
36 51 80
36 51 80
25 36 57
25 36 57
44 62 99
0 0 0
0 0 0
0 0 0
44 62 99
25 36 57
0 0 0
44 62 99
25 36 57
25 36 57
0 0 0
25 36 57
36 51 80
0 0 0
0 0 0
25 36 57
36 51 80
36 51 80
0 0 0
25 36 57
0 0 0
25 36 57
0 0 0
36 51 80
2 7 28
0 0 0
0 0 0
25 36 57
0 0 0
36 51 80
25 36 57
0 0 0
0 0 0
0 0 0
0 0 0
0 0 0
25 36 57
25 36 57
25 36 57
25 36 57
0 0 0
25 36 57
0 0 0
36 51 80
0 0 0
36 51 80
0 0 0
25 36 57
0 0 0
36 51 80
36 51 80
25 36 57
0 0 0
0 0 0
36 51 80
25 36 57
0 0 0
36 51 80
36 51 80
25 36 57
36 51 80
0 0 0
36 51 80
36 51 80
36 51 85
36 51 80
25 36 57
44 62 99
36 51 80
25 36 64
25 36 57
0 0 0
25 36 57
36 51 80
36 51 80
25 36 57
25 36 57
0 0 0
25 36 57
0 0 0
0 0 0
8 16 41
0 0 0
0 0 0
0 0 2
0 0 0
0 0 10
8 16 40
11 22 57
25 36 57
11 23 64
8 17 49
0 0 0
25 36 57
25 36 57
36 51 80
51 72 114
36 51 80
44 62 99
25 36 64
25 36 57
25 36 57
25 36 57
62 88 140
25 36 57
25 36 57
44 62 99
0 0 0
25 36 57
0 0 0
44 62 99
36 51 85
25 36 57
25 36 57
36 51 85
0 0 0
0 0 0
0 0 0
36 51 80
36 51 80
44 62 99
25 36 57
0 0 0
0 0 0
0 0 0
0 0 0
25 36 57
36 51 80
25 36 57
25 36 57
36 51 80
25 36 57
25 36 57
0 0 0
25 36 57
36 51 80
36 51 80
0 0 0
25 36 57
25 36 57
36 51 80
0 0 0
36 51 80
36 51 80
8 16 40
0 0 0
36 51 80
25 36 57
25 36 57
25 36 57
36 51 80
25 36 57
25 36 57
36 51 80
44 62 99
36 51 80
0 0 0
25 36 57
0 0 0
25 36 57
44 62 99
25 36 57
0 0 0
44 62 99
44 62 99
25 36 57
25 36 57
36 51 80
0 0 0
0 0 0
0 0 0
0 0 0
0 0 0
36 51 80
25 36 57
0 0 0
0 0 0
0 0 0
0 0 0
0 0 0
0 0 0
0 0 0
0 0 0
0 0 0
0 0 0
0 0 0
0 3 20
1 4 28
0 0 0
0 0 7
2 7 35
0 0 0
0 0 0
0 0 0
25 36 57
25 36 59
0 0 1
0 0 0
0 0 0
25 36 57
25 36 57
44 62 99
0 0 0
44 62 99
44 62 99
25 36 64
36 51 80
51 72 114
0 0 0
44 62 99
44 62 99
0 0 7
0 0 0
36 51 80
36 51 80
0 0 0
36 51 80
0 0 0
36 51 80
36 51 80
25 36 57
0 0 0
0 0 0
0 0 0
25 36 57
25 36 57
44 62 99
25 36 57
51 72 114
0 0 0
25 36 57
36 51 80
0 0 0
36 51 80
25 36 57
0 0 0
0 0 0
25 36 57
0 0 0
25 36 57
25 36 57
25 36 57
25 36 57
25 36 57
0 0 0
0 0 0
25 36 57
0 0 0
0 0 0
44 62 99
25 36 57
25 36 57
44 62 99
25 36 57
25 36 57
0 0 0
36 51 80
25 36 57
36 51 80
44 62 99
25 36 57
36 51 80
0 0 0
36 51 80
36 51 80
36 51 80
0 0 0
44 62 99
0 0 0
25 36 57
36 51 80
36 51 85
36 51 80
0 0 0
0 0 0
25 36 57
0 0 0
0 0 0
3 10 40
25 37 70
0 0 0
25 36 57
25 36 57
0 0 10
0 0 0
2 7 28
0 1 14
25 36 59
25 36 57
25 36 59
25 36 59
36 51 82
8 16 41
0 0 0
2 7 28
25 36 59
0 0 0
2 7 28
0 3 20
0 0 0
0 0 0
0 0 0
25 36 64
0 0 0
57 82 134
25 36 57
25 36 57
8 16 40
44 62 99
0 0 0
51 72 114
36 51 80
44 62 99
25 36 57
51 72 114
36 51 80
0 0 0
51 72 114
25 36 57
25 36 57
44 62 99
36 51 80
44 62 99
36 51 80
36 51 80
0 0 0
44 62 99
36 51 80
25 36 57
25 36 57
25 36 57
44 62 99
36 51 80
25 36 57
0 0 0
25 36 57
36 51 80
36 51 80
25 36 57
51 72 114
25 36 57
0 0 0
25 36 57
25 36 57
0 0 0
25 36 57
0 0 0
36 51 80
25 36 57
25 36 57
25 36 57
25 36 57
0 0 0
36 51 80
25 36 57
36 51 80
57 80 128
44 62 99
51 72 114
44 62 99
25 36 57
36 51 80
25 36 57
51 72 114
36 51 80
0 0 0
44 62 99
25 36 57
25 36 64
36 51 80
25 36 57
36 51 80
44 62 99
51 72 114
0 0 0
2 7 28
44 62 99
36 51 80
25 36 57
25 36 60
36 51 80
0 0 0
37 53 90
36 51 80
51 72 118
2 7 28
25 36 57
25 36 57
25 36 57
37 53 90
44 62 99
38 57 107
44 62 99
57 82 134
37 54 94
51 72 114
51 74 121
44 62 99
68 97 156
37 53 90
36 51 80
51 72 114
37 54 94
36 51 80
44 62 99
57 82 134
51 72 114
36 51 80
62 88 140
57 82 134
51 72 118
51 72 114
67 95 151
51 72 114
36 51 80
51 72 114
62 88 140
36 51 80
25 36 57
51 72 114
44 63 103
57 80 128
36 51 80
51 72 114
44 62 99
25 36 57
36 51 80
25 36 57
51 72 114
44 62 99
44 62 99
0 0 0
44 62 99
36 51 80
25 36 57
36 51 80
25 36 57
0 0 0
0 0 0
25 36 57
25 36 57
36 51 80
25 36 57
25 36 57
44 62 99
0 0 0
36 51 80
44 62 99
25 36 57
25 36 57
36 51 80
44 62 99
0 0 0
25 36 57
25 36 57
36 51 80
25 36 57
25 36 57
36 51 80
36 51 80
25 36 57
0 0 0
36 51 80
44 62 99
25 36 57
44 62 99
36 51 80
36 51 80
25 36 57
62 88 143
36 51 80
25 36 57
36 51 80
44 62 99
0 0 0
0 0 0
44 62 99
51 72 118
25 36 57
25 36 57
44 62 99
25 36 57
51 72 114
44 62 99
57 80 128
44 63 103
51 72 114
51 72 114
57 80 128
44 62 99
57 80 128
76 108 171
62 88 140
63 90 145
44 62 99
57 80 128
67 95 151
67 95 151
44 62 99
62 88 140
62 88 140
44 62 99
62 88 140
62 88 140
51 72 114
25 36 57
36 51 80
36 51 80
67 95 151
44 63 103
26 39 70
51 72 114
44 62 99
44 62 99
57 80 128
62 88 140
62 88 140
44 62 99
51 72 114
51 72 114
37 53 90
44 62 99
44 62 99
44 62 99
44 62 99
0 0 0
36 51 80
25 36 57
25 36 57
44 62 99
44 62 99
25 36 57
63 90 145
36 51 80
25 36 57
25 36 57
36 51 80
0 0 0
0 0 0
0 0 0
25 36 57
25 36 57
25 36 57
36 51 80
25 36 57
25 36 57
36 51 80
36 51 80
44 62 99
25 36 57
0 0 0
25 36 57
25 36 57
36 51 80
44 62 99
25 36 57
0 0 0
36 51 80
0 0 0
25 36 57
36 51 80
51 72 114
36 51 80
25 36 57
25 36 64
36 51 80
36 51 80
0 0 0
26 39 70
36 51 80
25 36 57
0 0 0
36 51 80
51 72 118
51 72 114
25 36 57
51 72 114
26 39 70
44 62 99
44 62 99
0 0 0
44 62 99
36 51 80
57 80 128
57 82 134
25 36 57
51 72 114
44 62 99
62 88 140
57 80 128
44 62 99
37 53 90
25 36 57
36 51 80
44 62 99
44 62 99
51 72 114
67 95 151
62 88 140
51 72 114
25 36 57
62 88 140
44 62 101
57 80 128
51 72 114
36 51 80
44 62 99
25 36 57
57 80 128
57 80 128
51 72 114
62 88 143
25 36 57
57 80 128
25 36 57
44 62 99
0 0 0
44 62 99
51 72 114
44 62 99
72 102 161
51 72 114
57 80 128
44 62 99
36 51 80
44 62 99
57 80 128
36 51 80
36 51 80
25 36 57
44 62 99
25 36 57
51 72 114
25 36 57
36 51 80
25 36 57
25 36 57
36 51 80
25 36 57
0 0 0
36 51 80
25 36 57
25 36 57
0 0 0
0 0 0
0 0 0
0 0 0
25 36 57
25 36 57
25 36 57
36 51 80
36 51 80
25 36 57
25 36 57
25 36 57
36 51 80
0 0 0
25 36 57
57 80 128
51 72 114
44 62 99
0 0 0
25 36 57
44 62 99
26 39 70
36 51 80
51 72 114
25 36 57
36 51 80
25 36 64
25 36 57
25 36 57
25 36 57
44 63 103
44 62 99
36 51 80
36 51 80
36 51 80
36 51 80
25 36 57
0 0 0
44 62 99
51 74 124
44 62 99
57 80 128
25 36 57
51 72 114
36 51 80
44 62 99
36 51 80
51 72 114
67 95 151
25 36 57
25 36 57
44 62 99
26 39 70
0 0 0
57 80 128
44 62 99
57 80 128
62 88 140
57 80 128
25 36 57
2 7 28
44 62 99
25 36 57
44 62 99
25 36 57
36 51 85
25 36 57
25 36 57
44 62 99
25 36 57
51 72 114
36 51 80
36 51 80
57 80 128
0 0 0
51 72 114
25 36 57
36 51 80
51 72 114
25 36 57
36 51 80
25 36 57
25 36 57
36 51 80
25 36 57
36 51 80
51 72 114
36 51 80
36 51 80
25 36 57
25 36 57
0 0 0
25 36 57
0 0 0
0 0 0
0 0 0
36 51 80
25 36 57
44 62 99
25 36 57
0 0 0
44 62 99
36 51 80
25 36 57
25 36 57
44 62 99
36 51 80
36 51 80
0 0 0
25 36 57
44 62 99
36 51 80
36 51 80
36 51 80
36 51 80
25 36 57
25 36 57
44 62 99
44 62 99
0 0 0
0 0 0
51 72 114
51 72 114
25 36 57
36 51 80
36 51 80
25 36 57
0 0 0
0 0 0
25 36 57
51 72 114
44 62 99
44 62 99
36 51 80
25 36 57
36 51 80
25 36 57
25 36 57
44 62 99
36 51 80
44 62 99
36 51 80
0 0 0
25 36 57
36 51 80
25 36 57
25 36 57
36 51 80
25 36 57
51 72 114
36 51 80
0 0 0
0 0 0
36 51 80
36 51 80
36 51 80
25 36 57
36 51 80
36 51 80
44 62 99
36 51 80
25 36 57
0 0 0
0 0 0
44 62 99
25 36 57
25 36 57
36 51 80
44 62 99
25 36 57
25 36 57
36 51 80
25 36 57
0 0 0
26 39 70
25 36 57
44 62 99
25 36 57
25 36 57
0 0 0
25 36 57
25 36 57
36 51 80
0 0 0
0 0 0
25 36 57
25 36 57
36 51 85
25 36 57
25 36 57
0 0 0
44 62 99
0 0 0
25 36 64
0 0 0
0 0 0
0 0 0
36 51 80
36 51 80
0 0 0
25 36 57
0 0 0
25 36 57
36 51 80
0 0 0
0 0 0
0 0 0
0 0 0
36 51 80
25 36 57
0 0 0
0 0 0
25 36 57
36 51 80
26 39 70
8 16 40
25 36 57
51 72 114
25 36 57
0 0 0
0 0 0
25 36 57
0 0 0
51 72 114
36 51 80
44 62 99
25 36 57
36 51 80
25 36 57
25 36 57
0 0 0
67 95 151
0 0 0
0 0 0
0 0 0
11 22 57
25 36 57
25 36 57
36 51 80
0 0 0
36 51 80
36 51 80
36 51 80
0 0 0
25 36 57
36 51 80
25 36 57
25 36 57
36 51 80
0 0 0
0 0 0
44 62 99
25 36 57
44 62 99
25 36 57
0 0 0
0 0 0
36 51 80
25 36 57
62 88 140
25 36 57
36 51 80
25 36 57
25 36 57
25 36 57
0 0 0
25 36 57
0 0 0
36 51 80
44 62 99
36 51 80
44 62 99
25 36 57
25 36 57
25 36 57
36 51 80
36 51 80
0 0 0
0 0 0
25 36 57
25 36 57
25 36 64
0 0 0
0 0 0
0 0 0
0 0 0
0 0 0
25 36 57
36 51 80
25 36 57
0 0 0
25 36 57
0 0 0
0 0 0
36 51 80
25 36 57
25 36 57
25 36 57
25 36 57
25 36 57
0 0 0
25 36 57
0 0 0
0 0 0
0 0 0
25 36 57
25 36 57
0 0 0
0 0 0
25 36 57
36 51 80
0 0 0
25 36 57
0 0 0
0 0 0
0 0 0
36 51 80
25 36 57
25 36 57
25 36 57
25 36 57
36 51 80
0 0 0
0 0 0
25 36 57
36 51 80
36 51 80
25 36 57
36 51 80
0 0 0
25 36 57
25 36 57
0 0 0
25 36 57
25 36 57
0 0 0
36 51 85
0 0 0
0 0 0
25 36 57
36 51 80
0 0 0
25 36 57
0 0 0
25 36 57
25 36 57
36 51 80
25 36 57
25 36 57
36 51 80
25 36 57
0 0 0
36 51 80
44 62 99
36 51 80
44 62 99
25 36 57
36 51 80
36 51 80
25 36 57
0 0 0
25 36 57
25 36 57
25 36 57
25 36 57
36 51 80
36 51 80
0 0 0
0 0 0
25 36 57
0 0 0
25 36 57
25 36 57
0 0 0
0 0 0
0 0 0
0 0 0
25 36 57
0 0 0
25 36 57
25 36 57
36 51 80
25 36 57
0 0 0
0 0 0
0 0 0
25 36 57
0 0 0
36 51 80
25 36 57
25 36 57
0 0 0
0 0 0
51 72 114
0 0 0
0 0 0
0 0 0
36 51 80
25 36 57
25 36 57
0 0 0
25 36 57
25 36 57
0 0 0
36 51 80
0 0 0
36 51 80
44 62 99
25 36 57
36 51 80
0 0 0
25 36 57
0 0 0
36 51 80
25 36 57
44 62 99
25 36 57
25 36 57
0 0 0
0 0 0
25 36 57
25 36 57
0 0 0
25 36 57
0 0 0
36 51 80
25 36 57
0 0 0
25 36 57
0 0 0
25 36 57
0 0 0
36 51 80
0 0 0
25 36 57
25 36 57
0 0 0
25 36 57
51 72 114
0 0 0
25 36 57
25 36 57
25 36 57
37 53 90
36 51 80
0 0 0
25 36 57
0 0 0
0 0 0
25 36 57
0 0 0
25 36 57
36 51 80
0 0 0
36 51 80
0 0 0
36 51 80
25 36 57
25 36 57
0 0 0
0 0 0
36 51 80
0 0 0
26 39 70
44 62 99
25 36 57
36 51 80
36 51 80
0 0 0
0 0 0
0 0 0
25 36 57
0 0 0
25 36 57
25 36 57
26 39 70
25 36 57
25 36 57
25 36 57
0 0 0
0 0 0
0 0 0
0 0 0
0 0 0
25 36 57
25 36 57
0 0 0
25 36 57
25 36 57
0 0 0
25 36 57
0 0 0
0 0 0
0 0 0
0 0 0
25 36 57
25 36 57
0 0 0
0 0 0
0 0 0
0 0 0
25 36 57
36 51 80
0 0 0
25 36 57
0 0 0
25 36 57
25 36 57
0 0 0
36 51 80
25 36 57
0 0 0
25 36 57
0 0 0
51 72 114
0 0 0
0 0 0
25 36 57
0 0 0
0 0 0
25 36 57
0 0 0
36 51 80
25 36 57
25 36 57
25 36 57
36 51 80
25 36 57
0 0 0
25 36 57
25 36 57
44 62 99
25 36 57
0 0 0
0 0 0
0 0 0
25 36 57
25 36 57
0 0 0
25 36 57
0 0 0
0 0 0
44 62 99
0 0 0
36 51 80
0 0 0
0 0 0
0 0 0
0 0 0
25 36 57
0 0 0
0 0 0
36 51 80
36 51 80
25 36 57
0 0 0
0 0 0
36 51 80
0 0 0
0 0 0
0 0 0
0 0 0
25 36 57
0 0 0
26 39 70
36 51 80
36 51 80
0 0 0
25 36 57
0 0 0
0 0 0
36 51 80
25 36 57
0 0 0
25 36 57
25 36 57
0 0 0
44 62 99
0 0 0
0 0 0
25 36 57
0 0 0
0 0 0
0 0 0
0 0 0
0 0 0
0 0 0
0 0 0
25 36 57
0 0 0
25 36 57
0 0 0
25 36 57
0 0 0
0 0 0
36 51 80
25 36 57
0 0 0
25 36 57
25 36 57
0 0 0
0 0 0
0 0 0
0 0 0
0 0 0
25 36 57
25 36 57
25 36 57
0 0 0
0 0 0
25 36 57
0 0 0
36 51 80
36 51 80
25 36 57
0 0 0
0 0 0
0 0 0
0 0 0
25 36 57
25 36 57
25 36 57
0 0 0
36 51 80
0 0 0
0 0 0
25 36 57
25 36 57
25 36 57
0 0 0
0 0 0
0 0 0
25 36 57
0 0 0
0 0 0
0 0 0
25 36 57
0 0 0
25 36 57
25 36 57
0 0 0
0 0 0
0 0 0
0 0 0
36 51 80
36 51 80
25 36 57
36 51 80
0 0 0
0 0 0
0 0 0
0 0 0
0 0 0
25 36 57
36 51 80
36 51 80
36 51 80
0 0 0
0 0 0
25 36 57
0 0 0
25 36 57
0 0 0
36 51 80
25 36 57
36 51 80
0 0 0
0 0 0
25 36 57
0 0 0
0 0 0
0 0 0
25 36 57
0 0 0
0 0 0
25 36 57
0 0 0
0 0 0
25 36 57
0 0 0
0 0 0
0 0 0
0 0 0
36 51 80
0 0 0
36 51 80
25 36 57
0 0 0
25 36 57
0 0 0
25 36 57
0 0 0
0 0 0
36 51 80
0 0 0
36 51 80
0 0 0
0 0 0
36 51 80
0 0 0
0 0 0
0 0 0
25 36 57
36 51 80
0 0 0
25 36 57
0 0 0
25 36 57
0 0 0
25 36 57
25 36 57
0 0 0
25 36 57
51 72 114
25 36 57
36 51 80
25 36 57
36 51 80
25 36 57
36 51 80
0 0 0
25 36 57
0 0 0
25 36 57
25 36 57
0 0 0
25 36 57
0 0 0
0 0 0
0 0 0
25 36 57
25 36 57
36 51 80
25 36 57
25 36 57
0 0 0
0 0 0
25 36 57
25 36 57
25 36 57
25 36 57
25 36 57
0 0 0
8 16 40
44 62 99
0 0 0
36 51 80
0 0 0
0 0 0
0 0 0
0 0 0
0 0 0
0 0 0
0 0 0
36 51 80
0 0 0
25 36 57
25 36 57
0 0 0
0 0 0
36 51 80
0 0 0
36 51 80
0 0 0
0 0 0
25 36 57
0 0 0
0 0 0
0 0 0
0 0 0
0 0 0
0 0 0
36 51 80
0 0 0
0 0 0
0 0 0
25 36 57
25 36 57
0 0 0
0 0 0
25 36 57
0 0 0
25 36 57
25 36 57
25 36 57
0 0 0
25 36 57
36 51 80
25 36 57
44 62 99
0 0 0
0 0 0
0 0 0
36 51 80
44 62 99
25 36 57
0 0 0
0 0 0
25 36 57
0 0 0
0 0 0
36 51 80
51 72 114
0 0 0
0 0 0
25 36 57
36 51 80
0 0 0
25 36 57
0 0 0
0 0 0
0 0 0
25 36 57
36 51 80
36 51 80
25 36 57
0 0 0
0 0 0
0 0 0
0 0 0
36 51 80
36 51 80
25 36 57
25 36 57
0 0 0
25 36 57
25 36 57
25 36 57
25 36 57
0 0 0
0 0 0
0 0 0
0 0 0
25 36 57
25 36 57
0 0 0
0 0 0
25 36 57
0 0 0
25 36 57
0 0 0
0 0 0
36 51 80
25 36 57
25 36 57
0 0 0
0 0 0
25 36 57
25 36 57
0 0 0
0 0 0
0 0 0
0 0 0
25 36 57
0 0 0
0 0 0
25 36 57
0 0 0
51 72 114
25 36 57
36 51 80
0 0 0
0 0 0
0 0 0
0 0 0
0 0 0
0 0 0
25 36 57
25 36 57
0 0 0
25 36 57
0 0 0
0 0 0
25 36 57
0 0 0
0 0 0
0 0 0
0 0 0
0 0 0
0 0 0
25 36 57
0 0 0
0 0 0
0 0 0
25 36 57
25 36 57
0 0 0
25 36 57
0 0 0
0 0 0
0 0 0
0 0 0
0 0 0
25 36 57
0 0 0
0 0 0
0 0 0
25 36 57
25 36 57
0 0 0
0 0 0
25 36 57
25 36 57
0 0 0
25 36 57
0 0 0
0 0 0
0 0 0
0 0 0
0 0 0
25 36 57
0 0 0
25 36 57
0 0 0
0 0 0
0 0 0
36 51 80
36 51 80
36 51 80
0 0 0
0 0 0
0 0 0
0 0 0
0 0 0
0 0 0
0 0 0
0 0 0
0 0 0
25 36 57
25 36 57
0 0 0
0 0 0
0 0 0
0 0 0
0 0 0
25 36 57
0 0 0
25 36 57
25 36 57
0 0 0
25 36 57
0 0 0
0 0 0
0 0 0
0 0 0
0 0 0
0 0 0
0 0 0
0 0 0
0 0 0
36 51 80
0 0 0
0 0 0
0 0 0
0 0 0
0 0 0
25 36 57
25 36 57
0 0 0
25 36 57
0 0 0
8 16 40
25 36 57
25 36 57
25 36 57
0 0 0
25 36 57
0 0 0
0 0 0
25 36 57
0 0 0
0 0 0
0 0 0
36 51 80
0 0 0
0 0 0
0 0 0
25 36 57
25 36 57
25 36 57
0 0 0
25 36 57
0 0 0
0 0 0
0 0 0
0 0 0
0 0 0
0 0 0
0 0 0
0 0 0
25 36 57
0 0 0
0 0 0
0 0 0
25 36 57
25 36 57
36 51 80
25 36 57
0 0 0
0 0 0
0 0 0
0 0 0
0 0 0
0 0 0
25 36 57
0 0 0
0 0 0
25 36 57
0 0 0
0 0 0
0 0 0
0 0 0
0 0 0
25 36 57
36 51 80
0 0 0
25 36 57
0 0 0
25 36 57
0 0 0
0 0 0
36 51 80
0 0 0
0 0 0
25 36 57
0 0 0
0 0 0
25 36 57
0 0 0
0 0 0
0 0 0
25 36 57
0 0 0
0 0 0
0 0 0
0 0 0
0 0 0
0 0 0
36 51 80
0 0 0
0 0 0
0 0 0
0 0 0
25 36 57
0 0 0
0 0 0
0 0 0
25 36 57
0 0 0
25 36 57
0 0 0
0 0 0
0 0 0
25 36 57
25 36 57
0 0 0
44 62 99
0 0 0
0 0 0
0 0 0
0 0 0
0 0 0
25 36 57
25 36 57
0 0 0
0 0 0
0 0 0
0 0 0
25 36 57
25 36 57
0 0 0
25 36 57
0 0 0
0 0 0
8 16 40
0 0 0
25 36 57
0 0 0
25 36 57
0 0 0
25 36 57
25 36 57
25 36 57
0 0 0
0 0 0
0 0 0
36 51 80
0 0 0
0 0 0
0 0 0
0 0 0
0 0 0
25 36 57
0 0 0
0 0 0
8 16 40
25 36 57
0 0 0
0 0 0
25 36 57
25 36 57
0 0 0
0 0 0
0 0 0
25 36 57
0 0 0
0 0 0
25 36 57
0 0 0
25 36 57
25 36 57
0 0 0
25 36 57
25 36 57
0 0 0
25 36 57
0 0 0
0 0 0
25 36 57
0 0 0
0 0 0
25 36 57
0 0 0
0 0 0
0 0 0
0 0 0
25 36 57
0 0 0
0 0 0
0 0 0
36 51 80
25 36 57
36 51 80
0 0 0
0 0 0
0 0 0
0 0 0
36 51 80
0 0 0
25 36 57
0 0 0
0 0 0
0 0 0
25 36 57
0 0 0
25 36 57
0 0 0
25 36 57
0 0 0
0 0 0
0 0 0
25 36 57
25 36 57
36 51 80
25 36 57
0 0 0
0 0 0
25 36 57
25 36 57
0 0 0
0 0 0
25 36 57
25 36 57
0 0 0
0 0 0
0 0 0
0 0 0
0 0 0
44 62 99
0 0 0
0 0 0
0 0 0
0 0 0
36 51 80
0 0 0
0 0 0
0 0 0
0 0 0
0 0 0
25 36 57
0 0 0
0 0 0
0 0 0
0 0 0
0 0 0
0 0 0
25 36 57
0 0 0
0 0 0
25 36 57
0 0 0
0 0 0
25 36 57
25 36 57
