# Blender 4.2.1 LTS
# www.blender.org
mtllib polygon.mtl
o Cube
v 1.388265 0.731155 -0.767904
v 0.906104 -1.383706 -0.715339
v 0.797083 1.291423 0.839146
v 1.158357 -1.034965 1.126782
v -1.000000 1.000000 -1.000000
v -1.000000 -1.000000 -1.000000
v -1.000000 1.000000 1.000000
v -1.398903 -1.546904 1.871630
v -1.448586 -0.265241 -0.587719
v -1.351481 -0.265241 -1.586923
v -0.153858 -0.265241 -0.461895
v -0.056753 -0.265241 -1.461099
v -1.448586 0.613194 -0.587719
v -1.707996 0.432726 -1.583268
v -0.153858 0.613194 -0.461895
v -0.392014 0.327245 -1.487886
vn -0.0027 0.9881 -0.1539
vn 0.1579 0.2274 0.9609
vn -0.9946 0.0732 -0.0732
vn 0.0244 -0.9989 -0.0412
vn 0.9945 -0.0192 0.1028
vn 0.1155 -0.0262 -0.9930
vn -0.0000 -1.0000 -0.0000
vn 0.9706 0.2194 -0.0986
vn 0.0594 0.9694 -0.2383
vn -0.9705 -0.2197 0.0988
vn -0.0967 -0.0000 0.9953
vn 0.0855 0.0280 -0.9959
vt 0.625000 0.500000
vt 0.875000 0.500000
vt 0.875000 0.750000
vt 0.625000 0.750000
vt 0.375000 0.750000
vt 0.625000 1.000000
vt 0.375000 1.000000
vt 0.375000 0.000000
vt 0.625000 0.000000
vt 0.625000 0.250000
vt 0.375000 0.250000
vt 0.125000 0.500000
vt 0.375000 0.500000
vt 0.125000 0.750000
s 0
usemtl Material
f 1/1/1 5/2/1 7/3/1 3/4/1
f 4/5/2 3/4/2 7/6/2 8/7/2
f 8/8/3 7/9/3 5/10/3 6/11/3
f 6/12/4 2/13/4 4/5/4 8/14/4
f 2/13/5 1/1/5 3/4/5 4/5/5
f 6/11/6 5/10/6 1/1/6 2/13/6
f 9/8/7 10/9/7 12/10/7 11/11/7
f 11/11/8 12/10/8 16/1/8 15/13/8
f 15/13/9 16/1/9 14/4/9 13/5/9
f 13/5/10 14/4/10 10/6/10 9/7/10
f 11/12/11 15/13/11 13/5/11 9/14/11
f 16/1/12 12/2/12 10/3/12 14/4/12
