# Blender 3.5.1
# www.blender.org
mtllib sphere2.mtl
o Icosphere
v 0.262869 -0.525738 0.809012
v -0.276385 -0.447215 0.850640
v -0.162456 -0.850654 0.499995
v 0.425323 -0.850654 0.309011
v 0.723600 -0.447215 0.525720
v 0.000000 -1.000000 0.000000
v 0.850648 -0.525736 0.000000
v 0.425323 -0.850654 -0.309011
v 0.723600 -0.447215 -0.525720
v -0.688189 -0.525736 0.499997
v -0.894425 -0.447215 0.000000
v -0.525730 -0.850652 0.000000
v -0.688189 -0.525736 -0.499997
v -0.276385 -0.447215 -0.850640
v -0.162456 -0.850654 -0.499995
v 0.262869 -0.525738 -0.809012
v 0.951058 0.000000 0.309013
v 0.951058 -0.000000 -0.309013
v 0.894425 0.447215 -0.000000
v 0.000000 0.000000 1.000000
v 0.587786 0.000000 0.809017
v 0.276385 0.447215 0.850640
v -0.951058 0.000000 0.309013
v -0.587786 0.000000 0.809017
v -0.723600 0.447215 0.525720
v -0.587786 -0.000000 -0.809017
v -0.951058 -0.000000 -0.309013
v -0.723600 0.447215 -0.525720
v 0.587786 -0.000000 -0.809017
v 0.000000 -0.000000 -1.000000
v 0.276385 0.447215 -0.850640
v 0.688189 0.525736 0.499997
v -0.262869 0.525738 0.809012
v -0.850648 0.525736 -0.000000
v -0.262869 0.525738 -0.809012
v 0.688189 0.525736 -0.499997
v 0.162456 0.850654 0.499995
v 0.525730 0.850652 -0.000000
v 0.000000 1.000000 -0.000000
v -0.425323 0.850654 0.309011
v -0.425323 0.850654 -0.309011
v 0.162456 0.850654 -0.499995
vn -0.0385 -0.6617 0.7488
vn 0.1876 -0.7947 0.5773
vn 0.4713 -0.6617 0.5831
vn 0.1024 -0.9435 0.3151
vn 0.7002 -0.6617 0.2680
vn 0.6071 -0.7947 -0.0000
vn 0.7002 -0.6617 -0.2680
vn 0.3313 -0.9435 -0.0000
vn -0.7240 -0.6617 0.1947
vn -0.4911 -0.7947 0.3568
vn -0.4089 -0.6617 0.6284
vn -0.2680 -0.9435 0.1947
vn -0.4089 -0.6617 -0.6284
vn -0.4911 -0.7947 -0.3568
vn -0.7240 -0.6617 -0.1947
vn -0.2680 -0.9435 -0.1947
vn 0.4713 -0.6617 -0.5831
vn 0.1876 -0.7947 -0.5773
vn -0.0385 -0.6617 -0.7488
vn 0.1024 -0.9435 -0.3151
vn 0.9050 -0.3304 0.2680
vn 0.9822 -0.1876 -0.0000
vn 0.9921 0.1256 -0.0000
vn 0.9050 -0.3304 -0.2680
vn 0.0247 -0.3304 0.9435
vn 0.3035 -0.1876 0.9342
vn 0.3066 0.1257 0.9435
vn 0.5346 -0.3304 0.7779
vn -0.8897 -0.3304 0.3151
vn -0.7947 -0.1876 0.5773
vn -0.8026 0.1256 0.5831
vn -0.5746 -0.3304 0.7488
vn -0.5746 -0.3304 -0.7488
vn -0.7947 -0.1876 -0.5773
vn -0.8026 0.1256 -0.5831
vn -0.8897 -0.3304 -0.3151
vn 0.5346 -0.3304 -0.7779
vn 0.3035 -0.1876 -0.9342
vn 0.3066 0.1257 -0.9435
vn 0.0247 -0.3304 -0.9435
vn 0.5746 0.3304 0.7488
vn 0.7947 0.1876 0.5773
vn 0.8897 0.3304 0.3151
vn 0.8026 -0.1256 0.5831
vn -0.5346 0.3304 0.7779
vn -0.3035 0.1876 0.9342
vn -0.0247 0.3304 0.9435
vn -0.3066 -0.1257 0.9435
vn -0.9050 0.3304 -0.2680
vn -0.9822 0.1876 -0.0000
vn -0.9050 0.3304 0.2680
vn -0.9921 -0.1256 -0.0000
vn -0.0247 0.3304 -0.9435
vn -0.3035 0.1876 -0.9342
vn -0.5346 0.3304 -0.7779
vn -0.3066 -0.1257 -0.9435
vn 0.8897 0.3304 -0.3151
vn 0.7947 0.1876 -0.5773
vn 0.5746 0.3304 -0.7488
vn 0.8026 -0.1256 -0.5831
vn 0.4089 0.6617 0.6284
vn 0.4911 0.7947 0.3568
vn 0.2680 0.9435 0.1947
vn 0.7240 0.6617 0.1947
vn -0.4713 0.6617 0.5831
vn -0.1876 0.7947 0.5773
vn -0.1024 0.9435 0.3151
vn 0.0385 0.6617 0.7488
vn -0.7002 0.6617 -0.2680
vn -0.6071 0.7947 -0.0000
vn -0.3313 0.9435 -0.0000
vn -0.7002 0.6617 0.2680
vn 0.0385 0.6617 -0.7488
vn -0.1876 0.7947 -0.5773
vn -0.1024 0.9435 -0.3151
vn -0.4713 0.6617 -0.5831
vn 0.7240 0.6617 -0.1947
vn 0.4911 0.7947 -0.3568
vn 0.2680 0.9435 -0.1947
vn 0.4089 0.6617 -0.6284
s 1
usemtl material
f 1//1 2//1 3//1
f 3//2 4//2 1//2
f 5//3 1//3 4//3
f 3//4 6//4 4//4
f 7//5 5//5 4//5
f 4//6 8//6 7//6
f 9//7 7//7 8//7
f 4//8 6//8 8//8
f 10//9 11//9 12//9
f 12//10 3//10 10//10
f 2//11 10//11 3//11
f 12//12 6//12 3//12
f 13//13 14//13 15//13
f 15//14 12//14 13//14
f 11//15 13//15 12//15
f 15//16 6//16 12//16
f 16//17 9//17 8//17
f 8//18 15//18 16//18
f 14//19 16//19 15//19
f 8//20 6//20 15//20
f 17//21 5//21 7//21
f 7//22 18//22 17//22
f 19//23 17//23 18//23
f 18//24 7//24 9//24
f 20//25 2//25 1//25
f 1//26 21//26 20//26
f 22//27 20//27 21//27
f 21//28 1//28 5//28
f 23//29 11//29 10//29
f 10//30 24//30 23//30
f 25//31 23//31 24//31
f 24//32 10//32 2//32
f 26//33 14//33 13//33
f 13//34 27//34 26//34
f 28//35 26//35 27//35
f 27//36 13//36 11//36
f 29//37 9//37 16//37
f 16//38 30//38 29//38
f 31//39 29//39 30//39
f 30//40 16//40 14//40
f 32//41 22//41 21//41
f 21//42 17//42 32//42
f 19//43 32//43 17//43
f 17//44 21//44 5//44
f 33//45 25//45 24//45
f 24//46 20//46 33//46
f 22//47 33//47 20//47
f 20//48 24//48 2//48
f 34//49 28//49 27//49
f 27//50 23//50 34//50
f 25//51 34//51 23//51
f 23//52 27//52 11//52
f 35//53 31//53 30//53
f 30//54 26//54 35//54
f 28//55 35//55 26//55
f 26//56 30//56 14//56
f 36//57 19//57 18//57
f 18//58 29//58 36//58
f 31//59 36//59 29//59
f 29//60 18//60 9//60
f 37//61 22//61 32//61
f 32//62 38//62 37//62
f 39//63 37//63 38//63
f 38//64 32//64 19//64
f 40//65 25//65 33//65
f 33//66 37//66 40//66
f 39//67 40//67 37//67
f 37//68 33//68 22//68
f 41//69 28//69 34//69
f 34//70 40//70 41//70
f 39//71 41//71 40//71
f 40//72 34//72 25//72
f 42//73 31//73 35//73
f 35//74 41//74 42//74
f 39//75 42//75 41//75
f 41//76 35//76 28//76
f 38//77 19//77 36//77
f 36//78 42//78 38//78
f 39//79 38//79 42//79
f 42//80 36//80 31//80
